<svg id="Capa_1" height="512" viewBox="0 0 512 512" width="512" xmlns="http://www.w3.org/2000/svg"><linearGradient id="SVGID_1_" gradientUnits="userSpaceOnUse" x1="513.711" x2="123.731" y1="100.614" y2="409.599"><stop offset="0" stop-color="#c7d3ff"/><stop offset=".593" stop-color="#e7d8f5"/><stop offset=".997" stop-color="#ffdbed"/></linearGradient><path d="M364.823 55.215c-69.098-27.035-164.784-16.764-217.662 31.51-37.336 34.085-8.439 43.8 17.016 106.17C182.6 238.035 0 231.822 0 313.39c0 94.299 132.251 76.424 181.329 87.218 75.036 16.504 140.496 78.242 220.668 70.103 69.795-7.086 96.403-61.855 106.109-124.642 18.082-116.976-26.329-245.094-143.283-290.854z" fill="url(#SVGID_1_)"/><path d="M464.698 187.411h-65.664v-20.994c0-11.52-9.33-20.85-20.84-20.85H117.246v-10.971c0-5.523-4.477-10-10-10H29.302c-5.523 0-10 4.477-10 10v77.944c0 5.523 4.477 10 10 10h60.202v137.026H68.799c-6.89 0-12.476 5.585-12.476 12.476v11.465c0 12.09 9.797 21.898 21.898 21.898h332.104c12.101 0 21.898-9.807 21.898-21.898v-11.465c0-6.89-5.586-12.476-12.476-12.476h-20.713v-74.211h65.664c5.523 0 10-4.477 10-10v-77.944c0-5.523-4.477-10-10-10z" fill="#2626bc" opacity=".11"/><path d="M417.034 148.417v208.93c0 2.76-2.24 5-5 5h-304.53v-213.93c0-11.52 9.33-20.85 20.84-20.85h267.85c11.51 0 20.84 9.33 20.84 20.85z" fill="#b7c5ff"/><path d="M296.243 255.937a4.987 4.987 0 01-3.793-1.74l-30.176-35.096-30.176 35.096a5 5 0 01-7.051.531 5 5 0 01-.531-7.051l33.967-39.505a5 5 0 017.582 0l33.967 39.505a5 5 0 01-3.789 8.26z" fill="#8399fe"/><g fill="#d2deff"><circle cx="340.194" cy="218.383" r="5.59"/><circle cx="357.105" cy="218.383" r="5.59"/><circle cx="374.015" cy="218.383" r="5.59"/><circle cx="340.194" cy="235.548" r="5.59"/><circle cx="357.105" cy="235.548" r="5.59"/><circle cx="374.015" cy="235.548" r="5.59"/></g><path d="M312.607 300.851H211.941a5 5 0 01-5-5v-39.914a5 5 0 015-5h100.667a5 5 0 015 5v39.914a5.001 5.001 0 01-5.001 5zM135.244 132.587v77.94c0 5.53-4.48 10-10 10h-17.74v-72.11c0-11.52 9.33-20.85 20.84-20.85h5.54a9.828 9.828 0 011.36 5.02zm281.79 52.81v97.95h-12.28c-5.52 0-10-4.48-10-10v-77.95c0-5.52 4.48-10 10-10z" fill="#9fb0fe"/><path d="M417.034 148.417v45.35c-6.75 6.33-15.83 10.2-25.79 10.2s-19.03-3.88-25.79-10.2c-6.76 6.32-15.83 10.2-25.8 10.2-9.96 0-19.03-3.88-25.79-10.2-6.76 6.32-15.83 10.2-25.79 10.2-9.97 0-19.04-3.88-25.8-10.2-6.76 6.32-15.83 10.2-25.79 10.2-9.97 0-19.04-3.88-25.8-10.2-6.76 6.32-15.83 10.2-25.79 10.2-9.97 0-19.04-3.88-25.8-10.2-6.76 6.32-15.83 10.2-25.79 10.2-9.97 0-19.04-3.88-25.8-10.21v-45.34c0-11.52 9.33-20.85 20.84-20.85h267.85c11.51 0 20.84 9.33 20.84 20.85z" fill="#9fb0fe"/><path d="M417.037 316.717v40.63c0 2.76-2.24 5-5 5h-304.53v-45.63z" fill="#01eca5"/><path d="M450.223 354.041v11.465c0 12.09-9.797 21.898-21.898 21.898H96.221c-12.101 0-21.898-9.808-21.898-21.898v-11.465c0-6.89 5.586-12.476 12.476-12.476h107.067a5.002 5.002 0 014.416 2.654l6.56 12.348a5 5 0 004.416 2.654h106.031a5.002 5.002 0 004.416-2.654l6.56-12.348a5 5 0 014.415-2.654h107.067c6.89 0 12.476 5.586 12.476 12.476z" fill="#97ffd2"/><path d="M411.832 359.684h-43.333a5 5 0 01-5-5v-13.118h53.333v13.118a5 5 0 01-5 5z" fill="#ff7eb8"/><path d="M450.225 354.037v11.47c0 12.09-9.8 21.9-21.9 21.9h-14.72c12.1 0 21.9-9.81 21.9-21.9v-11.47c0-6.89-5.59-12.47-12.48-12.47h14.72c6.89 0 12.48 5.58 12.48 12.47z" fill="#dcfdee"/><path d="M155.924 359.684H112.59a5 5 0 01-5-5v-13.118h53.333v13.118a4.999 4.999 0 01-4.999 5z" fill="#ff7eb8"/><path d="M133.303 191.97c-14.246 0-25.794-11.549-25.794-25.794v-17.757c0-11.515 9.335-20.85 20.85-20.85h30.739v38.607c0 14.245-11.549 25.794-25.795 25.794z" fill="#ffdbed"/><path d="M184.892 191.97c-14.246 0-25.794-11.549-25.794-25.794v-38.607h51.589v38.607c0 14.245-11.549 25.794-25.795 25.794z" fill="#02ffb3"/><path d="M210.682 127.567v38.61c0 14.24-11.54 25.79-25.79 25.79-2.24 0-4.4-.28-6.47-.82 11.12-2.87 19.33-12.96 19.33-24.97v-38.61z" fill="#97ffd2"/><path d="M236.481 191.97c-14.246 0-25.794-11.549-25.794-25.794v-38.607h51.589v38.607c-.001 14.245-11.549 25.794-25.795 25.794z" fill="#ffdbed"/><path d="M288.07 191.97c-14.246 0-25.794-11.549-25.794-25.794v-38.607h51.589v38.607c-.001 14.245-11.549 25.794-25.795 25.794z" fill="#02ffb3"/><path d="M313.862 127.567v38.61c0 14.24-11.55 25.79-25.79 25.79-2.24 0-4.4-.28-6.47-.82 11.12-2.87 19.33-12.96 19.33-24.97v-38.61z" fill="#97ffd2"/><path d="M339.659 191.97c-14.246 0-25.794-11.549-25.794-25.794v-38.607h51.589v38.607c-.001 14.245-11.55 25.794-25.795 25.794z" fill="#ffdbed"/><path d="M391.247 191.97c-14.246 0-25.794-11.549-25.794-25.794v-38.607h30.739c11.515 0 20.85 9.335 20.85 20.85v17.757c0 14.245-11.549 25.794-25.795 25.794z" fill="#02ffb3"/><path d="M417.042 148.417v17.76c0 14.24-11.55 25.79-25.79 25.79-2.24 0-4.4-.28-6.47-.82 11.11-2.87 19.32-12.96 19.32-24.97v-17.76c0-11.51-9.33-20.85-20.85-20.85h12.94c11.52 0 20.85 9.34 20.85 20.85z" fill="#97ffd2"/><path d="M125.246 204.54H47.302c-5.523 0-10-4.477-10-10v-77.944c0-5.523 4.477-10 10-10h77.944c5.523 0 10 4.477 10 10v77.944c0 5.523-4.477 10-10 10z" fill="#02ffb3"/><path d="M135.243 116.598v77.94c0 5.52-4.47 10-10 10h-16.69c5.53 0 10-4.48 10-10v-77.94c0-5.53-4.47-10-10-10h16.69c5.529 0 10 4.47 10 10z" fill="#97ffd2"/><path d="M482.698 267.355h-77.944c-5.523 0-10-4.477-10-10v-77.944c0-5.523 4.477-10 10-10h77.944c5.523 0 10 4.477 10 10v77.944c0 5.523-4.477 10-10 10z" fill="#ff7eb8"/><path d="M492.694 179.413v77.94c0 5.52-4.47 10-10 10h-16.69c5.53 0 10-4.48 10-10v-77.94c0-5.53-4.47-10-10-10h16.69c5.53 0 10 4.47 10 10z" fill="#ffa8cf"/><path d="M312.607 293.479H211.941a5 5 0 01-5-5v-39.914a5 5 0 015-5h100.667a5 5 0 015 5v39.914a5 5 0 01-5.001 5z" fill="#ffdbed"/><path d="M222.932 282.779h6.099a5 5 0 005-5v-18.514a5 5 0 00-5-5h-6.099a5 5 0 00-5 5v18.514a5 5 0 005 5zm24.195 0h6.099a5 5 0 005-5v-18.514a5 5 0 00-5-5h-6.099a5 5 0 00-5 5v18.514a5 5 0 005 5zm24.195 0h6.099a5 5 0 005-5v-18.514a5 5 0 00-5-5h-6.099a5 5 0 00-5 5v18.514a5 5 0 005 5zm24.195 0h6.099a5 5 0 005-5v-18.514a5 5 0 00-5-5h-6.099a5 5 0 00-5 5v18.514a5 5 0 005 5z" fill="#ffa8cf"/><path d="M152.262 248.566h-13.754a5 5 0 110-10h13.754a5 5 0 110 10zm27.63 26.871h-41.384a5 5 0 110-10h41.384a5 5 0 110 10zm0 16.256h-41.384a5 5 0 110-10h41.384a5 5 0 110 10z" fill="#02ffb3"/><path d="M92.822 150.568h-1.548v-10.281h6.511c2.762 0 5-2.238 5-5s-2.238-5-5-5h-6.511v-2.551c0-2.762-2.238-5-5-5s-5 2.238-5 5v2.551h-1.549c-8.348 0-15.14 6.792-15.14 15.141s6.792 15.141 15.14 15.141h1.549v10.28h-6.511c-2.762 0-5 2.238-5 5s2.238 5 5 5h6.511v2.552c0 2.762 2.238 5 5 5s5-2.238 5-5v-2.552h1.548c8.349 0 15.141-6.792 15.141-15.141 0-8.348-6.792-15.14-15.141-15.14zm-13.096 0c-2.834 0-5.14-2.306-5.14-5.141s2.306-5.141 5.14-5.141h1.549v10.281h-1.549zm13.096 20.281h-1.548v-10.28h1.548c2.835 0 5.141 2.306 5.141 5.14s-2.306 5.14-5.141 5.14z" fill="#fff"/><path d="M270.944 332.684h-17.342c-2.762 0-5 2.238-5 5s2.238 5 5 5h17.342c2.762 0 5-2.238 5-5s-2.238-5-5-5z" fill="#2626bc"/><path d="M482.698 164.411h-60.656v-15.997c0-14.251-11.594-25.845-25.845-25.845H140.246v-5.974c0-8.271-6.729-15-15-15H47.302c-8.271 0-15 6.729-15 15v77.944c0 8.271 6.729 15 15 15h55.203v79.077c0 2.762 2.238 5 5 5s5-2.238 5-5V209.54h12.741c7.709 0 14.071-5.846 14.902-13.337 7.956-1.805 14.673-6.675 18.951-13.236 5.501 8.421 15.005 14.002 25.794 14.002 10.788 0 20.293-5.582 25.794-14.004 5.501 8.422 15.006 14.004 25.795 14.004 10.788 0 20.293-5.582 25.794-14.004 5.501 8.422 15.006 14.004 25.795 14.004 10.788 0 20.293-5.582 25.794-14.004 5.501 8.422 15.005 14.004 25.794 14.004s20.293-5.582 25.795-14.004c5.246 8.031 14.132 13.478 24.301 13.966v60.423c0 8.271 6.729 15 15 15h7.288v39.363H107.515l-.01-.001a5 5 0 00-5 5v19.849H86.8c-9.637 0-17.477 7.84-17.477 17.476v11.465c0 14.831 12.066 26.897 26.898 26.897h332.104c14.831 0 26.897-12.066 26.897-26.897v-11.465c0-9.636-7.84-17.476-17.476-17.476h-15.705v-64.211h60.656c8.271 0 15-6.729 15-15v-77.943c.001-8.271-6.727-15-14.999-15zm-77.846 172.154c-2.762 0-5 2.238-5 5s2.238 5 5 5h6.98v8.118h-43.333v-8.118h8.253c2.762 0 5-2.238 5-5s-2.238-5-5-5h-46.071a9.98 9.98 0 00-8.832 5.309l-6.56 12.348H209.258l-6.561-12.349a9.98 9.98 0 00-8.831-5.308h-81.361v-14.848h299.537v14.848zm-248.921 18.119h-43.34v-8.118h43.336zm289.292-.643v11.465c0 9.317-7.58 16.897-16.897 16.897H96.222c-9.317 0-16.898-7.58-16.898-16.897v-11.465c0-4.122 3.354-7.476 7.477-7.476h15.791v8.118c0 5.514 4.486 10 10 10h43.333c5.514 0 10-4.486 10-10v-8.118h27.942l6.561 12.35a9.983 9.983 0 008.831 5.307H315.29a9.982 9.982 0 008.832-5.309l6.56-12.348H358.5v8.118c0 5.514 4.486 10 10 10h43.333c5.514 0 10-4.486 10-10v-8.118h15.915c4.121 0 7.475 3.354 7.475 7.476zM130.246 194.54c0 2.757-2.243 5-5 5H47.302c-2.757 0-5-2.243-5-5v-77.944c0-2.757 2.243-5 5-5h77.944c2.757 0 5 2.243 5 5zm10-8.774V132.57h13.852v33.606c0 8.944-5.721 16.708-13.852 19.59zm44.647 1.204c-11.467 0-20.795-9.328-20.795-20.794V132.57h41.589v33.606c0 11.466-9.329 20.794-20.794 20.794zm51.588 0c-11.467 0-20.795-9.328-20.795-20.794V132.57h41.589v33.606c0 11.466-9.328 20.794-20.794 20.794zm51.589 0c-11.467 0-20.795-9.328-20.795-20.794V132.57h41.589v33.606c0 11.466-9.328 20.794-20.794 20.794zm51.588 0c-11.466 0-20.794-9.328-20.794-20.794V132.57h41.589v33.606c0 11.466-9.328 20.794-20.795 20.794zm30.795-20.794V132.57h25.738c8.74 0 15.851 7.11 15.851 15.85v15.992h-7.288c-8.271 0-15 6.729-15 15v7.483c-10.769-.772-19.301-9.757-19.301-20.719zm117.245 91.178c0 2.757-2.243 5-5 5h-77.944c-2.757 0-5-2.243-5-5v-77.943c0-2.757 2.243-5 5-5h77.944c2.757 0 5 2.243 5 5z" fill="#2626bc"/><path d="M426.562 214.229c-7.175 0-13.012-5.837-13.012-13.012 0-7.174 5.837-13.011 13.012-13.011 7.174 0 13.011 5.837 13.011 13.011-.001 7.176-5.838 13.012-13.011 13.012zm0-16.022a3.015 3.015 0 00-3.012 3.011 3.015 3.015 0 003.012 3.012 3.015 3.015 0 003.011-3.012 3.015 3.015 0 00-3.011-3.011zm34.329 50.352c-7.174 0-13.011-5.837-13.011-13.011s5.837-13.011 13.011-13.011 13.011 5.837 13.011 13.011-5.838 13.011-13.011 13.011zm0-16.022c-1.66 0-3.011 1.351-3.011 3.011s1.351 3.011 3.011 3.011 3.011-1.351 3.011-3.011-1.351-3.011-3.011-3.011zm-31.359 5.039a4.98 4.98 0 01-3.535-1.465 4.998 4.998 0 010-7.07l28.387-28.387a4.998 4.998 0 017.07 0 4.998 4.998 0 010 7.07l-28.387 28.387a4.978 4.978 0 01-3.535 1.465z" fill="#ffdbed"/><path d="M465.769 94.581a14.55 14.55 0 01-10.325-4.271c-5.694-5.693-5.694-14.957 0-20.65 5.691-5.693 14.956-5.694 20.651-.001 5.694 5.694 5.694 14.958 0 20.651v.001a14.562 14.562 0 01-10.326 4.27zm6.791-7.806h.01zm-6.791-11.39a4.591 4.591 0 00-3.255 1.346 4.61 4.61 0 000 6.51 4.611 4.611 0 006.511-.001 4.609 4.609 0 000-6.509 4.595 4.595 0 00-3.256-1.346z" fill="#01eca5"/><path d="M418.55 444.661a14.55 14.55 0 01-10.325-4.271c-5.694-5.693-5.694-14.957 0-20.65 5.691-5.693 14.956-5.694 20.651-.001 5.694 5.694 5.694 14.958 0 20.651v.001a14.562 14.562 0 01-10.326 4.27zm6.791-7.806h.01zm-6.791-11.39a4.591 4.591 0 00-3.255 1.346 4.61 4.61 0 000 6.51 4.611 4.611 0 006.511-.001 4.609 4.609 0 000-6.509 4.593 4.593 0 00-3.256-1.346z" fill="#ff7eb8"/><path d="M175.289 447.455a14.55 14.55 0 01-10.325-4.271c-5.694-5.693-5.694-14.958 0-20.651 5.691-5.693 14.956-5.694 20.651-.001 5.694 5.694 5.694 14.959 0 20.652v.001a14.56 14.56 0 01-10.326 4.27zm6.791-7.806h.01zm-6.791-11.391a4.591 4.591 0 00-3.255 1.346 4.611 4.611 0 000 6.511 4.611 4.611 0 006.511-.001 4.61 4.61 0 000-6.51 4.593 4.593 0 00-3.256-1.346z" fill="#01eca5"/><path d="M90.977 56.593h-3.25v-3.25c0-2.762-2.238-5-5-5s-5 2.238-5 5v3.25h-3.25c-2.762 0-5 2.238-5 5s2.238 5 5 5h3.25v3.25c0 2.762 2.238 5 5 5s5-2.238 5-5v-3.25h3.25a5 5 0 100-10z" fill="#ff7eb8"/><path d="M466.169 400.937h-3.25v-3.25c0-2.762-2.238-5-5-5s-5 2.238-5 5v3.25h-3.25c-2.762 0-5 2.238-5 5s2.238 5 5 5h3.25v3.25c0 2.762 2.238 5 5 5s5-2.238 5-5v-3.25h3.25c2.762 0 5-2.238 5-5s-2.238-5-5-5z" fill="#8399fe"/></svg>