<svg id="Capa_1" height="512" viewBox="0 0 512 512" width="512" xmlns="http://www.w3.org/2000/svg"><linearGradient id="SVGID_1_" gradientUnits="userSpaceOnUse" x1="5.399" x2="506.601" y1="256" y2="256"><stop offset="0" stop-color="#ffdbed"/><stop offset="1" stop-color="#dcfdee"/></linearGradient><path d="M461.173 27.352C397.416-10.635 314.915-8.526 252.3 30.393c-35.18 21.866-62.374 53.403-93.212 80.552-27.022 23.789-58.445 40.758-86.353 63.204-101.21 81.403-91.553 300.961 50.962 330.125 61.777 12.642 146.21 16.696 182.519-43.642 34.62-57.531 46.232-116.383 113.876-146.942 23.573-10.65 62.975-10.113 78.944-33.45 20.152-29.45-4.853-60.043-18.192-85.707-17.19-33.074-20.795-65.682-8.699-101.16 10.298-30.211 17.549-43.782-10.972-66.021z" fill="url(#SVGID_1_)"/><path d="M465.307 189.535c0-31.932-25.979-57.911-57.91-57.911h-76.923c-26.745 0-49.303 18.228-55.929 42.91h-37.089c-6.627-24.682-29.184-42.91-55.929-42.91h-76.923c-31.932 0-57.911 25.979-57.911 57.911 0 20.658 10.881 38.814 27.206 49.066-11.074 14.679-17.642 32.948-17.642 52.752v120.319c0 5.523 4.477 10 10 10h91.046c5.523 0 10-4.477 10-10v-23.348h36.948c5.487 0 9.665-4.921 8.774-10.336l-6.005-36.494h15.709a8.892 8.892 0 008.892-8.892v-41.249c0-20.144-6.798-38.698-18.218-53.503 11.641-7.705 20.345-19.496 24.055-33.316h37.089c3.71 13.82 12.414 25.61 24.055 33.316-11.42 14.805-18.218 33.359-18.218 53.503v41.249a8.892 8.892 0 008.892 8.892h15.709l-6.005 36.494c-.891 5.414 3.287 10.336 8.774 10.336h36.948v23.348c0 5.523 4.477 10 10 10h91.046c5.523 0 10-4.477 10-10V291.353c0-19.805-6.569-38.073-17.642-52.752 16.32-10.253 27.201-28.408 27.201-49.066zm-275.972 26.79c-13.242-8.03-28.779-12.653-45.397-12.653h-.001c-16.84 0-32.568 4.751-45.924 12.98-12.219-2.97-21.32-13.998-21.32-27.117 0-15.39 12.521-27.911 27.911-27.911h76.923c9.871 0 18.555 5.155 23.518 12.91h-2.542c-8.284 0-15 6.716-15 15s6.716 15 15 15h2.543c-3.602 5.626-9.16 9.878-15.711 11.791zm120.162-41.791h-2.542c4.964-7.755 13.648-12.91 23.519-12.91h76.923c15.39 0 27.91 12.521 27.91 27.911 0 13.119-9.102 24.147-21.32 27.117-13.357-8.229-29.085-12.98-45.925-12.98-16.617 0-32.155 4.624-45.397 12.653-6.551-1.913-12.11-6.165-15.71-11.791h2.543c8.284 0 15-6.716 15-15-.001-8.284-6.716-15-15.001-15z" fill="#2626bc" opacity=".1"/><path d="M407.397 223.445h-76.923c-31.932 0-57.911-25.979-57.911-57.91 0-31.932 25.979-57.911 57.911-57.911h76.923c31.932 0 57.91 25.979 57.91 57.911 0 31.931-25.978 57.91-57.91 57.91zm-76.923-85.821c-15.39 0-27.911 12.521-27.911 27.911s12.521 27.91 27.911 27.91h76.923c15.39 0 27.91-12.521 27.91-27.91 0-15.39-12.521-27.911-27.91-27.911z" fill="#02ffb3"/><path d="M302.56 165.53c0 12.75 8.6 23.54 20.31 26.85a29.746 29.746 0 01-13.37 3.15h-28.55a57.567 57.567 0 01-8.39-30z" fill="#01eca5"/><path d="M368.062 179.672c48.425 0 87.682 39.256 87.682 87.681v120.319c0 5.523-4.477 10-10 10h-91.046c-5.523 0-10-4.477-10-10v-23.348H307.75c-5.487 0-9.665-4.921-8.774-10.336l6.005-36.494h-15.709a8.892 8.892 0 01-8.892-8.892v-41.249c.001-48.425 39.257-87.681 87.682-87.681z" fill="#8399fe"/><path d="M143.938 179.672c-48.426 0-87.682 39.256-87.682 87.681v120.319c0 5.523 4.477 10 10 10h91.046c5.523 0 10-4.477 10-10v-23.348h36.948c5.487 0 9.665-4.921 8.774-10.336l-6.005-36.494h15.709a8.892 8.892 0 008.892-8.892v-41.249c-.001-48.425-39.257-87.681-87.682-87.681z" fill="#ffa8cf"/><path d="M79.716 207.667A87.815 87.815 0 0065.92 227.31a72.467 72.467 0 0038.68 11.13h76.93c14.75 0 28.5-4.41 39.99-11.97a87.894 87.894 0 00-13.359-18.803zm227.387 215.521a4.987 4.987 0 01-3.536-1.464l-11-11a5 5 0 010-7.071l11-11a5.001 5.001 0 017.071 0l11 11a5 5 0 010 7.071l-11 11a4.983 4.983 0 01-3.535 1.464zm-3.929-16l3.929 3.929 3.929-3.929-3.929-3.929zM177.792 75a5 5 0 01-5-5c0-3.309-2.691-6-6-6a5 5 0 010-10c3.309 0 6-2.691 6-6a5 5 0 0110 0c0 3.309 2.691 6 6 6a5 5 0 010 10c-3.309 0-6 2.691-6 6a5 5 0 01-5 5z" fill="#ff7eb8"/><path d="M367 453a5 5 0 01-5-5c0-3.309-2.691-6-6-6a5 5 0 010-10c3.309 0 6-2.691 6-6a5 5 0 0110 0c0 3.309 2.691 6 6 6a5 5 0 010 10c-3.309 0-6 2.691-6 6a5 5 0 01-5 5z" fill="#6583fe"/><path d="M181.527 223.445h-76.923c-31.932 0-57.911-25.979-57.911-57.91 0-31.932 25.979-57.911 57.911-57.911h76.923c31.932 0 57.91 25.979 57.91 57.911 0 31.931-25.979 57.91-57.91 57.91zm-76.924-85.821c-15.39 0-27.911 12.521-27.911 27.911s12.521 27.91 27.911 27.91h76.923c15.39 0 27.91-12.521 27.91-27.91 0-15.39-12.521-27.911-27.91-27.911z" fill="#02ffb3"/><path d="M239.44 165.53c0 10.98-3.07 21.25-8.39 30H202.5c-4.8 0-9.34-1.13-13.37-3.15 11.71-3.31 20.31-14.1 20.31-26.85z" fill="#01eca5"/><path d="M309.497 180.534H202.503c-8.284 0-15-6.716-15-15 0-8.284 6.716-15 15-15h106.995c8.284 0 15 6.716 15 15-.001 8.285-6.716 15-15.001 15z" fill="#dcfdee"/><path d="M256 99a5 5 0 01-5-5c0-3.309-2.691-6-6-6a5 5 0 010-10c3.309 0 6-2.691 6-6a5 5 0 0110 0c0 3.309 2.691 6 6 6a5 5 0 010 10c-3.309 0-6 2.691-6 6a5 5 0 01-5 5z" fill="#6583fe"/><path d="M143.937 451.304a4.987 4.987 0 01-3.536-1.464l-11-11a5 5 0 010-7.071l11-11a5.001 5.001 0 017.071 0l11 11a5 5 0 010 7.071l-11 11a4.981 4.981 0 01-3.535 1.464zm-3.928-16l3.929 3.929 3.929-3.929-3.929-3.929z" fill="#01eca5"/><g fill="#2626bc"><path d="M470.307 165.535c0-34.689-28.221-62.911-62.91-62.911h-76.923c-26.93 0-51.111 17.526-59.649 42.91h-29.66c-8.625-25.721-32.411-42.91-59.638-42.91h-76.923c-34.689 0-62.911 28.222-62.911 62.911 0 20.549 9.905 38.825 25.189 50.313-10.23 15.261-15.626 32.996-15.626 51.505v51.317a5 5 0 0010 0v-51.317c0-16.6 4.866-32.496 14.082-46.154a62.513 62.513 0 0029.266 7.247h76.923c10.894 0 21.342-2.886 30.492-7.994 9.548 13.824 14.599 29.997 14.599 46.903v41.25a3.896 3.896 0 01-3.892 3.892h-29.935a5 5 0 000 10h9.983l1.967 11.953c-32.587-.742-46.098-7.455-46.369-7.593a5 5 0 00-4.692 8.831c.65.348 15.812 8.226 52.712 8.797l1.698 10.319a3.848 3.848 0 01-.873 3.151 3.845 3.845 0 01-2.967 1.373h-36.948a5 5 0 00-5 5v23.348c0 2.757-2.243 5-5 5H66.256c-2.757 0-5-2.243-5-5V352.33a5 5 0 00-10 0v35.342c0 8.271 6.729 15 15 15h91.046c8.271 0 15-6.729 15-15v-18.348h31.948a13.87 13.87 0 0010.59-4.901 13.873 13.873 0 003.117-11.247l-5.048-30.682h9.818c7.66 0 13.892-6.232 13.892-13.892v-41.25c0-18.894-5.631-36.974-16.276-52.445 9.47-7.438 16.851-17.552 20.828-29.374h29.66c3.898 11.586 11.172 21.857 20.81 29.446-10.25 14.91-16.259 32.952-16.259 52.373v41.25c0 7.66 6.232 13.892 13.892 13.892h9.818l-5.049 30.683a13.872 13.872 0 003.117 11.246 13.868 13.868 0 0010.59 4.901h31.948v18.348c0 8.271 6.729 15 15 15h91.046c8.271 0 15-6.729 15-15V267.353c0-19.036-5.772-36.748-15.653-51.483 15.851-11.883 25.216-30.443 25.216-50.335zm-160.809-10.001c5.514 0 10 4.486 10 10s-4.486 10-10 10H202.502c-5.514 0-10-4.486-10-10s4.486-10 10-10zm-119.625 31.31c-13.927-7.961-29.802-12.172-45.935-12.172-16.418 0-32.525 4.352-46.628 12.576-9.067-3.054-15.617-11.63-15.617-21.713 0-12.633 10.278-22.911 22.911-22.911h76.923c4.927 0 9.604 1.555 13.472 4.384-7.318 2.975-12.497 10.153-12.497 18.527 0 8.363 5.165 15.534 12.469 18.516a23.126 23.126 0 01-5.098 2.793zm-21.237 1.601h-49.419a82.902 82.902 0 0124.721-3.773c8.414 0 16.745 1.29 24.698 3.773zm12.891 30h-76.923c-29.175 0-52.911-23.735-52.911-52.91s23.736-52.911 52.911-52.911h76.923c21.758 0 40.909 13.051 48.988 32.91h-22.89c-.038-.052-.061-.11-.101-.162-6.295-8.102-15.771-12.749-25.997-12.749h-76.923c-18.147 0-32.911 14.764-32.911 32.911 0 18.146 14.764 32.91 32.911 32.91h76.923c10.192 0 19.89-4.819 26.105-12.911h22.867c-8.056 19.611-27.493 32.912-48.972 32.912zm99.974-32.911h22.878c2.312 3.014 5.076 5.586 8.21 7.617a93.468 93.468 0 00-14.852 13.904 53.3 53.3 0 01-16.236-21.521zm169.243 202.138c0 2.757-2.243 5-5 5h-91.046c-2.757 0-5-2.243-5-5v-23.348a5 5 0 00-5-5H307.75c-1.567 0-2.531-.86-2.967-1.373s-1.128-1.604-.874-3.15l1.698-10.319c36.9-.571 52.063-8.449 52.713-8.797a5 5 0 10-4.719-8.817c-.135.072-13.197 6.844-46.343 7.58l1.967-11.954h9.983a5 5 0 000-10h-29.935a3.896 3.896 0 01-3.892-3.892v-41.25c0-45.59 37.09-82.681 82.681-82.681 45.591 0 82.682 37.091 82.682 82.681zm-26.442-193.933c9.77-5.87 16.005-16.517 16.005-28.204 0-18.147-14.764-32.911-32.91-32.911h-5.317a5 5 0 000 10h5.317c12.633 0 22.91 10.278 22.91 22.911 0 9.693-6.149 18.378-15.301 21.612-.108.038-.201.099-.305.143-13.708-8.016-29.645-12.618-46.639-12.618-16.692 0-32.367 4.438-45.909 12.192a22.836 22.836 0 01-5.141-2.808c7.312-2.978 12.485-10.153 12.485-18.522 0-8.364-5.165-15.535-12.469-18.516 3.872-2.811 8.571-4.394 13.446-4.394h37.946a5 5 0 000-10h-37.946c-10.21 0-19.885 4.814-26.103 12.91h-22.87c8.055-19.617 27.468-32.91 48.973-32.91h76.923c29.175 0 52.91 23.736 52.91 52.911 0 16.73-7.886 32.339-21.228 42.338a93.46 93.46 0 00-14.777-14.134z"/><path d="M347.84 268.035a5 5 0 00-5 5v3.112a5 5 0 0010 0v-3.112a5 5 0 00-5-5zm35.706-.239a5 5 0 107.071 7.071c7.758-7.758 20.381-7.758 28.139 0s7.758 20.38 0 28.138-20.381 7.758-28.139 0a5.001 5.001 0 00-7.071 7.071c5.829 5.828 13.484 8.742 21.141 8.742 7.656 0 15.312-2.914 21.141-8.742 11.657-11.657 11.657-30.624 0-42.281-11.658-11.655-30.624-11.655-42.282.001zm-211.386 8.351v-3.112a5 5 0 00-10 0v3.112a5 5 0 0010 0zm-50.778-1.279a5.001 5.001 0 007.071-7.071c-11.657-11.656-30.624-11.656-42.281 0-11.657 11.657-11.657 30.624 0 42.281 5.829 5.828 13.485 8.742 21.141 8.742s15.312-2.914 21.141-8.742a5 5 0 10-7.071-7.071c-7.758 7.758-20.381 7.757-28.139 0-7.758-7.758-7.758-20.38 0-28.138s20.381-7.759 28.138-.001z"/></g></svg>