<svg id="Capa_1" height="512" viewBox="0 0 512 512" width="512" xmlns="http://www.w3.org/2000/svg"><linearGradient id="SVGID_1_" gradientUnits="userSpaceOnUse" x1="420.854" x2="181.854" y1="81.636" y2="452.636"><stop offset=".011" stop-color="#dcfdee"/><stop offset=".381" stop-color="#e8f1ee"/><stop offset="1" stop-color="#ffdbed"/></linearGradient><path d="M364.823 55.215c-69.098-27.035-164.784-16.764-217.662 31.51-37.336 34.085-8.439 43.8 17.016 106.17C182.6 238.035 0 231.822 0 313.39c0 94.299 132.251 76.424 181.329 87.218 75.036 16.504 140.496 78.242 220.668 70.103 69.795-7.086 96.403-61.855 106.109-124.642 18.082-116.976-26.329-245.094-143.283-290.854z" fill="url(#SVGID_1_)"/><path d="M413.91 129.901H56.43c-11.046 0-20 8.954-20 20V343.35c0 9.316 6.379 17.121 15 19.344v10.79c0 9.316 6.379 17.121 15 19.344v10.379c0 .64.03 1.27.09 1.9.95 10.16 9.5 18.1 19.91 18.1h297.48c10.41 0 18.96-7.94 19.91-18.1.06-.63.09-1.26.09-1.9v-10.379c8.621-2.223 15-10.029 15-19.344v-10.79c8.621-2.223 15-10.029 15-19.344V149.901c0-11.046-8.955-20-20-20z" fill="#2626bc" opacity=".11"/><path d="M424.74 309.203v73.45c0 .64-.03 1.27-.09 1.9-.95 10.16-9.5 18.1-19.91 18.1H107.26c-10.41 0-18.96-7.94-19.91-18.1-.06-.63-.09-1.26-.09-1.9v-73.45c0-11.04 8.95-20 20-20h297.48c11.05 0 20 8.96 20 20z" fill="#ff7eb8"/><path d="M424.74 309.203v73.45c0 .64-.03 1.27-.09 1.9-1.6.25-3.24.38-4.91.38H92.26c-1.67 0-3.31-.13-4.91-.38-.06-.63-.09-1.26-.09-1.9v-73.45c0-11.04 8.95-20 20-20h297.48c11.05 0 20 8.96 20 20z" fill="#ff5ba8"/><path d="M419.74 372.93H92.26c-11.046 0-20-8.954-20-20V219.48c0-11.046 8.954-20 20-20h327.48c11.046 0 20 8.954 20 20v133.45c0 11.045-8.954 20-20 20z" fill="#9fb0fe"/><path d="M439.74 219.483v133.45c0 .5-.02.99-.06 1.48-1.61.25-3.26.38-4.94.38H77.26c-1.68 0-3.33-.13-4.94-.38-.04-.49-.06-.98-.06-1.48v-133.45c0-11.05 8.95-20 20-20h327.48c11.05 0 20 8.95 20 20z" fill="#8399fe"/><path d="M434.74 342.795H77.26c-11.046 0-20-8.954-20-20V129.346c0-11.046 8.954-20 20-20h357.48c11.046 0 20 8.954 20 20v193.449c0 11.046-8.954 20-20 20z" fill="#02ffb3"/><path d="M418.67 200.536v51.068c0 2.224-1.479 4.15-3.607 4.799-20.164 6.15-35.631 23.053-39.731 44.032-.454 2.321-2.537 3.966-4.902 3.966H141.57c-2.365 0-4.448-1.645-4.902-3.966-4.1-20.979-19.567-37.882-39.731-44.032-2.128-.649-3.607-2.574-3.607-4.799v-51.068c0-2.224 1.479-4.15 3.607-4.799 20.164-6.15 35.631-23.053 39.731-44.032.454-2.321 2.537-3.966 4.902-3.966h228.86c2.365 0 4.448 1.645 4.902 3.966 4.1 20.979 19.567 37.882 39.731 44.032 2.128.65 3.607 2.575 3.607 4.799z" fill="#00d890"/><ellipse cx="256" cy="226.07" fill="#02ffb3" rx="50.5" ry="64.188"/><path d="M181.388 285.987h-21.81a5 5 0 110-10h21.81a5 5 0 110 10zm171.033-109.833h-21.81a5 5 0 110-10h21.81a5 5 0 110 10z" fill="#97ffd2"/><g fill="#dcfdee"><circle cx="148.579" cy="226.07" r="5.59"/><circle cx="165.489" cy="226.07" r="5.59"/><circle cx="182.399" cy="226.07" r="5.59"/><circle cx="329.601" cy="226.07" r="5.59"/><circle cx="346.511" cy="226.07" r="5.59"/><circle cx="363.421" cy="226.07" r="5.59"/></g><path d="M410.909 174.815a5 5 0 01-3.536-8.535l17.667-17.667a5.001 5.001 0 017.071 7.071l-17.667 17.667a4.984 4.984 0 01-3.535 1.464zm-12.485-13.834a5 5 0 01-3.536-8.535l17.667-17.667a5.001 5.001 0 017.071 7.071l-17.667 17.667a4.983 4.983 0 01-3.535 1.464zM95.909 318.826a5 5 0 01-3.536-8.535l17.667-17.667a5.001 5.001 0 017.071 7.071l-17.667 17.667a4.984 4.984 0 01-3.535 1.464zm-12.485-13.833a5 5 0 01-3.536-8.535l17.667-17.667a5.001 5.001 0 017.071 7.071L86.96 303.528a4.988 4.988 0 01-3.536 1.465z" fill="#00d890"/><path d="M262.549 221.07H261v-10.28h6.511a5 5 0 100-10H261v-2.551a5 5 0 10-10 0v2.551h-1.549c-8.348 0-15.14 6.792-15.14 15.141 0 8.348 6.792 15.14 15.14 15.14H251v10.281h-6.511a5 5 0 100 10H251v2.551a5 5 0 1010 0v-2.551h1.549c8.348 0 15.14-6.792 15.14-15.141-.001-8.349-6.793-15.141-15.14-15.141zm-13.098 0c-2.834 0-5.14-2.306-5.14-5.14s2.306-5.141 5.14-5.141H251v10.281zm13.098 20.281H261V231.07h1.549c2.834 0 5.14 2.306 5.14 5.14s-2.306 5.141-5.14 5.141z" fill="#fff"/><path d="M454.74 274.45a5 5 0 005-5V129.346c0-13.785-11.215-25-25-25H77.26c-13.785 0-25 11.215-25 25v193.449c0 10.231 6.18 19.041 15 22.906v7.229a24.995 24.995 0 0015 22.921v6.803c0 13.785 11.215 25 25 25h297.48c13.785 0 25-11.215 25-25v-6.812a24.984 24.984 0 0015-22.912v-7.229c8.82-3.866 15-12.676 15-22.906V297.55a5 5 0 10-10 0v25.245c0 8.271-6.729 15-15 15H77.26c-8.271 0-15-6.729-15-15V129.346c0-8.271 6.729-15 15-15h357.48c8.271 0 15 6.729 15 15V269.45a5 5 0 005 5zm-20 73.345v5.135c0 6.851-4.624 12.824-11.241 14.526a15.17 15.17 0 01-3.759.474H116.063a5 5 0 100 10H419.74v4.724c0 8.271-6.729 15-15 15H107.26c-8.271 0-15-6.729-15-15V372.3a5 5 0 00-3.753-4.842A14.992 14.992 0 0177.26 352.93v-5.135z" fill="#2626bc"/><path d="M380.239 150.748c-.906-4.64-5.031-8.008-9.809-8.008H141.569c-4.777 0-8.902 3.368-9.809 8.007-3.735 19.115-17.638 34.521-36.281 40.208-4.276 1.304-7.149 5.154-7.149 9.581v51.068c0 4.427 2.873 8.277 7.148 9.581 18.645 5.687 32.547 21.093 36.282 40.207.905 4.64 5.031 8.008 9.809 8.008H370.43c4.777 0 8.903-3.368 9.809-8.007 3.735-19.115 17.638-34.521 36.281-40.208 4.276-1.304 7.149-5.154 7.149-9.581v-51.068c0-4.427-2.873-8.277-7.148-9.581-18.644-5.686-32.546-21.093-36.282-40.207zm33.365 100.873c-22.188 6.767-38.732 25.104-43.173 47.78l-228.855.075c-4.446-22.75-20.991-41.088-43.245-47.871l.066-51.084c22.188-6.767 38.732-25.104 43.173-47.78l228.855-.075c4.445 22.748 20.987 41.083 43.245 47.897z" fill="#2626bc"/><path d="M59.25 381.199H56v-3.25a5 5 0 10-10 0v3.25h-3.25a5 5 0 100 10H46v3.25a5 5 0 1010 0v-3.25h3.25a5 5 0 100-10z" fill="#8399fe"/><path d="M154.209 78.083h-3.25v-3.25a5 5 0 10-10 0v3.25h-3.25a5 5 0 100 10h3.25v3.25a5 5 0 1010 0v-3.25h3.25a5 5 0 100-10z" fill="#01eca5"/><path d="M466.104 389.21h-3.25v-3.25a5 5 0 10-10 0v3.25h-3.25a5 5 0 100 10h3.25v3.25a5 5 0 1010 0v-3.25h3.25a5 5 0 100-10zM449.623 73.425c-1.458 0-2.923-.221-4.354-.666a14.51 14.51 0 01-8.591-7.15 14.514 14.514 0 01-1.018-11.131 14.502 14.502 0 017.15-8.589 14.505 14.505 0 0111.129-1.018 14.51 14.51 0 018.591 7.15 14.511 14.511 0 011.018 11.13 14.501 14.501 0 01-7.15 8.59 14.532 14.532 0 01-6.775 1.684zM449.6 54.21c-.736 0-1.466.179-2.136.531-1.089.572-1.889 1.534-2.254 2.708s-.251 2.42.32 3.508a4.575 4.575 0 002.708 2.254 4.567 4.567 0 003.508-.321A4.571 4.571 0 00454 60.182a4.577 4.577 0 00-.32-3.508 4.575 4.575 0 00-2.708-2.254 4.626 4.626 0 00-1.372-.21zM75.415 437.622c-1.433 0-2.889-.213-4.327-.66-7.688-2.391-11.998-10.591-9.608-18.28 2.393-7.688 10.586-11.999 18.281-9.608 7.688 2.391 11.998 10.591 9.607 18.28-1.944 6.25-7.727 10.268-13.953 10.268zm.012-19.208a4.61 4.61 0 00-4.398 3.237c-.753 2.423.605 5.008 3.029 5.762s5.007-.605 5.762-3.029a4.609 4.609 0 00-4.393-5.97zm9.167 7.455h.01z" fill="#ff7eb8"/></svg>