<svg id="Capa_1" height="512" viewBox="0 0 512 512" width="512" xmlns="http://www.w3.org/2000/svg"><linearGradient id="SVGID_1_" gradientUnits="userSpaceOnUse" x1="5.399" x2="506.601" y1="256" y2="256"><stop offset="0" stop-color="#ffdbed"/><stop offset="1" stop-color="#dcfdee"/></linearGradient><path d="M461.173 27.352C397.416-10.635 314.915-8.526 252.3 30.393c-35.18 21.866-62.374 53.403-93.212 80.552-27.022 23.789-58.445 40.758-86.353 63.204-101.21 81.403-91.553 300.961 50.962 330.125 61.777 12.642 146.21 16.696 182.519-43.642 34.62-57.531 46.232-116.383 113.876-146.942 23.573-10.65 62.975-10.113 78.944-33.45 20.152-29.45-4.853-60.043-18.192-85.707-17.19-33.074-20.795-65.682-8.699-101.16 10.298-30.211 17.549-43.782-10.972-66.021z" fill="url(#SVGID_1_)"/><path d="M375.209 307.278c-41.351 0-76.694 25.712-90.92 62.02-.099-.036-.188-.088-.291-.118l-54.642-15.993a97.515 97.515 0 005.051-31.069c0-25.213-9.56-48.193-25.252-65.514l59.626-40.549c.071-.049.126-.111.194-.163 17.885 22.443 45.449 36.83 76.378 36.83 53.912 0 97.616-43.704 97.616-97.616S399.265 57.49 345.353 57.49s-97.616 43.704-97.616 97.616c0 19.403 5.662 37.483 15.422 52.68h-.001l-60.313 41.017a4.923 4.923 0 00-.818.704c-17.289-15.543-40.156-25.004-65.235-25.004-53.912 0-97.616 43.704-97.616 97.616s43.704 97.616 97.616 97.616c39.519 0 73.552-23.485 88.907-57.259.179.076.349.163.54.219l54.897 16.068a97.682 97.682 0 00-3.543 26.132c0 53.912 43.704 97.616 97.616 97.616s97.616-43.704 97.616-97.616c0-53.913-43.704-97.617-97.616-97.617z" fill="#2626bc" opacity=".1"/><circle cx="345.353" cy="131.106" fill="#6583fe" r="97.616"/><path d="M409.126 121.38v83.63c-17.1 14.77-39.39 23.71-63.77 23.71-5.8 0-11.48-.51-17-1.48v-35.33h-26.87c-3.99 0-7.03-3.58-6.38-7.52l.91-5.53 1.65-10.02 1.81-10.99h-11.43c-3.57 0-6.46-2.9-6.46-6.47v-30c0-35.22 28.55-63.77 63.77-63.77s63.77 28.55 63.77 63.77z" fill="#fff"/><path d="M337.746 172.28c-.5.27-12.55 6.53-41.73 6.58l1.65-10.02c25.04-.25 35.29-5.35 35.4-5.4 2.44-1.25 5.46-.31 6.73 2.12s.37 5.42-2.05 6.72zm-7.101-39.505a5 5 0 01-5-5v-2.263a5 5 0 1110 0v2.263a5 5 0 01-5 5zm41.345 27.398c-5.918 0-11.835-2.252-16.34-6.757a5 5 0 117.07-7.071c5.111 5.11 13.427 5.11 18.538 0 5.11-5.111 5.11-13.426 0-18.537-5.112-5.111-13.428-5.111-18.538 0a5 5 0 11-7.07-7.071c9.012-9.008 23.671-9.009 32.679 0 9.01 9.009 9.01 23.669.001 32.679-4.505 4.505-10.423 6.757-16.34 6.757z" fill="#6583fe"/><circle cx="136.791" cy="298.118" fill="#02ffb3" r="97.616"/><path d="M200.564 288.392v83.63c-17.1 14.77-39.39 23.71-63.77 23.71-5.8 0-11.48-.51-17-1.48v-35.33h-26.87c-3.99 0-7.03-3.58-6.38-7.52l.91-5.53 1.65-10.02 1.81-10.99h-11.43c-3.57 0-6.46-2.9-6.46-6.47v-30c0-35.22 28.55-63.77 63.77-63.77s63.77 28.55 63.77 63.77z" fill="#fff"/><path d="M129.184 339.292c-.5.27-12.55 6.53-41.73 6.58l1.65-10.02c25.04-.25 35.29-5.35 35.4-5.4 2.44-1.25 5.46-.31 6.73 2.12s.37 5.42-2.05 6.72zm-7.101-39.504a5 5 0 01-5-5v-2.263a5 5 0 1110 0v2.263a5 5 0 01-5 5zm41.345 27.398c-5.918 0-11.835-2.252-16.34-6.757a5 5 0 117.07-7.071c5.111 5.11 13.427 5.11 18.538 0 5.11-5.111 5.11-13.426 0-18.537-5.112-5.111-13.428-5.111-18.538 0a5 5 0 11-7.07-7.071c9.012-9.008 23.671-9.009 32.679 0 9.01 9.009 9.01 23.669.001 32.679-4.505 4.505-10.423 6.757-16.34 6.757z" fill="#02ffb3"/><circle cx="375.209" cy="380.894" fill="#ff7eb8" r="97.616"/><path d="M438.982 371.168v83.63c-17.1 14.77-39.39 23.71-63.77 23.71-5.8 0-11.48-.51-17-1.48v-35.33h-26.87c-3.99 0-7.03-3.58-6.38-7.52l.91-5.53 1.65-10.02 1.81-10.99h-11.43c-3.57 0-6.46-2.9-6.46-6.47v-30c0-35.22 28.55-63.77 63.77-63.77s63.77 28.55 63.77 63.77z" fill="#fff"/><path d="M367.602 422.068c-.5.27-12.55 6.53-41.73 6.58l1.65-10.02c25.04-.25 35.29-5.35 35.4-5.4 2.44-1.25 5.46-.31 6.73 2.12s.37 5.42-2.05 6.72zm-7.102-39.505a5 5 0 01-5-5V375.3a5 5 0 1110 0v2.263a5 5 0 01-5 5zm41.346 27.399c-5.918 0-11.835-2.252-16.34-6.757a5 5 0 117.07-7.071c5.111 5.11 13.427 5.11 18.538 0 5.11-5.111 5.11-13.426 0-18.537-5.112-5.111-13.428-5.111-18.538 0a5 5 0 11-7.07-7.071c9.012-9.008 23.671-9.009 32.679 0 9.01 9.009 9.01 23.669.001 32.679-4.505 4.504-10.423 6.757-16.34 6.757z" fill="#ff7eb8"/><path d="M155.083 141.604a5 5 0 01-5-5c0-3.309-2.692-6-6.001-6a5 5 0 110-10 6.007 6.007 0 006.001-6 5 5 0 1110 0c0 3.309 2.691 6 5.999 6a5 5 0 110 10 6.006 6.006 0 00-5.999 6 5 5 0 01-5 5z" fill="#01eca5"/><path d="M453.751 244.938a5 5 0 01-5-5c0-3.309-2.691-6-6-6a5 5 0 110-10c3.309 0 6-2.691 6-6a5 5 0 1110 0c0 3.309 2.691 6 6 6a5 5 0 110 10c-3.309 0-6 2.691-6 6a5 5 0 01-5 5z" fill="#ff7eb8"/><path d="M188 450.648a5 5 0 01-5-5c0-3.309-2.691-6-6-6a5 5 0 110-10c3.309 0 6-2.691 6-6a5 5 0 1110 0c0 3.309 2.691 6 6 6a5 5 0 110 10c-3.309 0-6 2.691-6 6a5 5 0 01-5 5z" fill="#01eca5"/><path d="M192.074 170.604a4.983 4.983 0 01-3.535-1.464l-11-11a5 5 0 010-7.071l11-11a5 5 0 017.07 0l11 11a5 5 0 010 7.071l-11 11a4.985 4.985 0 01-3.535 1.464zm-3.928-16l3.929 3.929 3.929-3.929-3.929-3.929z" fill="#ff7eb8"/><path d="M245.396 463.92a4.983 4.983 0 01-3.535-1.464l-11-11a5 5 0 010-7.071l11-11a5 5 0 017.07 0l11 11a5 5 0 010 7.071l-11 11a4.981 4.981 0 01-3.535 1.464zm-3.928-16l3.929 3.929 3.929-3.929-3.929-3.929z" fill="#6583fe"/><path d="M136.791 400.735c41.697 0 77.661-25 93.7-60.796l45.842 13.417a102.743 102.743 0 00-3.74 27.538c0 56.583 46.033 102.616 102.616 102.616s102.616-46.033 102.616-102.616-46.033-102.616-102.616-102.616c-21.337 0-41.796 6.49-59.165 18.767a5 5 0 105.772 8.166c15.672-11.078 34.136-16.933 53.394-16.933 51.068 0 92.616 41.547 92.616 92.616s-41.548 92.616-92.616 92.616-92.616-41.547-92.616-92.616c0-19.1 5.771-37.441 16.689-53.04a5 5 0 00-8.193-5.734 102.366 102.366 0 00-11.597 21.742l-45.352-13.274a102.2 102.2 0 005.268-32.469c0-26.217-9.887-50.165-26.123-68.323l51.597-35.089c18.811 23.75 47.892 39.015 80.472 39.015 24.424 0 48.086-8.727 66.627-24.574 18.334-15.669 30.611-37.33 34.57-60.992a5.001 5.001 0 00-4.106-5.757 5.007 5.007 0 00-5.757 4.106c-3.571 21.349-14.653 40.896-31.204 55.041-16.732 14.3-38.087 22.176-60.13 22.176-51.069 0-92.617-41.547-92.617-92.616s41.548-92.616 92.617-92.616c44.862 0 83.192 31.991 91.14 76.067a5 5 0 109.842-1.775C437.528 63.94 395.06 28.49 345.354 28.49c-56.583 0-102.617 46.033-102.617 102.616 0 20.42 5.998 39.465 16.321 55.469l-52.912 35.983c-18.277-16.79-42.638-27.056-69.355-27.056-56.583 0-102.616 46.033-102.616 102.616s46.033 102.617 102.616 102.617zm0-195.233c51.068 0 92.616 41.547 92.616 92.616s-41.548 92.616-92.616 92.616-92.616-41.547-92.616-92.616 41.548-92.616 92.616-92.616z" fill="#2626bc"/></svg>