<svg id="Capa_1" height="512" viewBox="0 0 512 512" width="512" xmlns="http://www.w3.org/2000/svg"><linearGradient id="SVGID_1_" gradientUnits="userSpaceOnUse" x1="8.753" x2="524.202" y1="401.161" y2="103.566"><stop offset="0" stop-color="#dcfdee" stop-opacity="0"/><stop offset=".629" stop-color="#d2f3e4"/></linearGradient><path d="M418.32 2.5c-55.666-9.521-178.298 12.183-200.004 105.017-14.431 61.722-14.007 112.075-50.427 113.02-21.67.562-32.97-44.31-62.889-48.001-39.047-4.817-66.145 27.695-83.057 57.138-37.205 64.772-25.571 174.918 23.354 228.632 118.488 130.086 259.197-5.952 319.358-112.309 38.585-68.213 125.637-123.352 143.767-200.248C523.599 81.373 489.919 14.746 418.32 2.5z" fill="url(#SVGID_1_)"/><g fill="#6583fe" opacity=".2"><path d="M445.079 212.816c-7.232-7.748-17.458-12.193-28.057-12.193h-56.839v-14.652c0-6.1-4.945-11.046-11.046-11.046H223.09c-.002-1.681-.835-3.322-2.373-4.264-7.177-4.396-11.462-12.034-11.462-20.436s4.285-16.041 11.462-20.437c3.097-1.9 3.109-6.623 0-8.527-7.177-4.396-11.462-12.034-11.462-20.436s4.285-16.041 11.462-20.437a5 5 0 10-5.222-8.527c-10.169 6.227-16.241 17.055-16.241 28.964 0 9.529 3.895 18.358 10.659 24.699-6.763 6.341-10.659 15.171-10.659 24.7s3.895 18.358 10.658 24.699h-91.064c-6.1 0-11.045 4.945-11.045 11.046V400.39a94.928 94.928 0 00-11.725 9.978c-23.325 23.325-30.547 53.92-16.13 68.336 11.28 11.28 32.464 9.311 52.32-3.251 10.79 6.597 25.622 10.674 41.998 10.674 26.312 0 48.634-10.521 56.596-25.124h96.184c18.301 0 33.137-14.836 33.137-33.137v-8.492h34.361c27.177 0 49.935-21.238 51.81-48.349l8.952-129.38c.732-10.572-2.996-21.08-10.227-28.829zm-17.951 26.882l-8.952 129.38c-.859 12.418-11.183 22.052-23.631 22.052h-8.934c-10.234 0-19.378-4.661-25.429-11.974V240.843c6.05-7.314 15.195-11.974 25.429-11.974H416.7c2.793 0 5.543 1.007 7.509 2.991 2.083 2.103 3.122 4.901 2.919 7.838z"/><path d="M146.033 119.971c0 11.909 6.071 22.737 16.241 28.964a4.998 4.998 0 006.875-1.653 5 5 0 00-1.653-6.875c-7.177-4.396-11.462-12.035-11.462-20.437s4.285-16.04 11.462-20.436c3.096-1.9 3.11-6.624 0-8.527-7.177-4.396-11.462-12.035-11.462-20.437s4.285-16.04 11.462-20.436a5 5 0 10-5.222-8.527c-10.169 6.227-16.241 17.054-16.241 28.963 0 9.529 3.895 18.359 10.659 24.7-6.764 6.343-10.659 15.172-10.659 24.701zm116.671-14.88a4.998 4.998 0 006.875-1.653 5 5 0 00-1.653-6.875c-7.178-4.396-11.463-12.035-11.463-20.437 0-8.4 4.285-16.04 11.463-20.436a5 5 0 10-5.222-8.527c-10.169 6.227-16.24 17.055-16.24 28.963 0 11.91 6.071 22.738 16.24 28.965zm59.064 43.844a4.998 4.998 0 006.875-1.653 5 5 0 00-1.653-6.875c-7.177-4.396-11.462-12.035-11.462-20.437s4.285-16.04 11.462-20.436a5 5 0 10-5.222-8.527c-10.169 6.227-16.241 17.054-16.241 28.963s6.072 22.738 16.241 28.965z"/></g><path d="M394.544 399.376h-56.042c-7.8 0-14.123-6.323-14.123-14.123V194.746c0-7.8 6.323-14.123 14.123-14.123h78.52c10.599 0 20.825 4.445 28.057 12.193a38.51 38.51 0 0110.228 28.831l-8.952 129.38c-1.876 27.111-24.634 48.349-51.811 48.349zm-8.932-28.246h8.934c12.448 0 22.772-9.634 23.631-22.052l8.952-129.38c.204-2.937-.835-5.735-2.919-7.838-1.966-1.984-4.716-2.991-7.509-2.991h-31.089c-18.218 0-32.987 14.769-32.987 32.987v96.288c0 18.218 14.768 32.986 32.987 32.986z" fill="#8399fe"/><path d="M327.046 441.004H140.939c-18.301 0-33.137-14.836-33.137-33.137V165.971c0-6.1 4.945-11.046 11.046-11.046h230.289c6.1 0 11.046 4.945 11.046 11.046v241.897c0 18.301-14.836 33.136-33.137 33.136z" fill="#9fb0fe"/><path d="M360.183 351.422H291.6c-5.523 0-10-4.477-10-10v-131.56c0-5.523 4.477-10 10-10h68.583zm-252.38-151.56h23.583c5.523 0 10 4.477 10 10v131.56c0 5.523-4.477 10-10 10h-23.583z" fill="#ffa8cf"/><path d="M107.803 379.248v28.62c0 18.301 14.836 33.137 33.137 33.137h186.107c18.301 0 33.137-14.836 33.137-33.137v-28.62z" fill="#fff"/><ellipse cx="174.266" cy="429.213" fill="#fe2c8f" rx="59.727" ry="36.915"/><path d="M174.266 392.298c32.985 0 59.727 16.527 59.727 36.915 0 1.095-.077 2.174-.231 3.245-11.714-.081-11.791-6.491-23.66-6.491-11.945 0-11.945 6.491-23.891 6.491-11.945 0-11.945-6.491-23.891-6.491-11.945 0-11.945 6.491-23.891 6.491-11.868 0-11.945-6.409-23.66-6.491 2.66-18.871 28.285-33.669 59.497-33.669z" fill="#ff5ba8"/><ellipse cx="122.181" cy="416.472" fill="#ff7eb8" rx="59.727" ry="36.915" transform="rotate(-45 122.114 416.527)"/><path d="M96.078 390.369c23.324-23.324 53.919-30.547 68.336-16.13a22.72 22.72 0 012.131 2.458c-8.341 8.226-12.927 3.748-21.319 12.14-8.447 8.447-3.857 13.036-12.304 21.483s-13.036 3.857-21.483 12.304-3.857 13.036-12.304 21.483c-8.392 8.392-12.979 3.914-21.319 12.14-11.464-15.224-3.809-43.807 18.262-65.878z" fill="#ffa8cf"/><g fill="#2626bc"><path d="M448.734 189.404c-8.174-8.759-19.732-13.781-31.712-13.781h-51.839v-9.651c0-8.848-7.198-16.046-16.045-16.046H219.596c-6.498-4.482-10.342-11.748-10.342-19.699 0-8.401 4.285-16.041 11.462-20.437.028-.017.049-.04.076-.058.249-.159.489-.334.709-.539.008-.008.018-.014.026-.021a4.973 4.973 0 00.709-.847c.043-.063.092-.121.132-.187.05-.081.076-.168.121-.251.085-.158.165-.317.233-.483.06-.148.109-.297.155-.449.046-.155.087-.309.119-.468.032-.161.053-.322.068-.484.015-.159.025-.316.025-.476s-.01-.317-.025-.476a4.985 4.985 0 00-.068-.484 4.716 4.716 0 00-.119-.468 4.673 4.673 0 00-.155-.449 4.873 4.873 0 00-.233-.483c-.044-.083-.071-.17-.121-.251-.03-.048-.07-.086-.101-.133a5.196 5.196 0 00-.327-.431c-.1-.121-.199-.242-.309-.352s-.231-.209-.352-.309a4.997 4.997 0 00-.431-.328c-.047-.031-.084-.071-.132-.1-7.177-4.396-11.462-12.035-11.462-20.436s4.285-16.041 11.462-20.437a5 5 0 10-5.222-8.527c-10.169 6.227-16.24 17.055-16.24 28.964 0 9.529 3.895 18.358 10.658 24.699-6.763 6.341-10.658 15.171-10.658 24.7 0 7.23 2.249 14.054 6.283 19.699h-86.689c-8.848 0-16.046 7.198-16.046 16.046v180.45a5 5 0 1010 0v-180.45a6.053 6.053 0 016.046-6.046h230.289a6.052 6.052 0 016.045 6.046v241.896c0 15.515-12.622 28.137-28.137 28.137h-60.481a5 5 0 100 10h60.481c21.029 0 38.137-17.108 38.137-38.137v-3.492h29.361c29.793 0 54.742-23.282 56.799-53.004l8.952-129.38c.827-11.949-3.386-23.827-11.56-32.587zm-83.551 33.312c.036-.036.078-.061.113-.097 5.347-5.643 12.561-8.75 20.315-8.75H416.7c1.564 0 3.006.551 3.957 1.51 1.075 1.086 1.588 2.46 1.483 3.976l-8.952 129.38c-.675 9.755-8.864 17.396-18.643 17.396h-8.934c-7.755 0-14.97-3.107-20.315-8.75-.035-.037-.077-.062-.113-.098zm85.135-1.413l-8.952 129.38c-1.695 24.501-22.262 43.693-46.822 43.693h-29.361v-24.2c6.035 3.875 13.049 5.954 20.428 5.954h8.934c15.012 0 27.583-11.73 28.619-26.707l8.952-129.38c.304-4.403-1.242-8.56-4.355-11.702-2.816-2.843-6.847-4.473-11.061-4.473h-31.089c-7.379 0-14.393 2.079-20.428 5.954v-24.199h51.839a33.489 33.489 0 0124.401 10.604 33.492 33.492 0 018.895 25.076z"/><path d="M146.033 99.971c0 11.909 6.071 22.737 16.24 28.964a4.998 4.998 0 006.875-1.653 5 5 0 00-1.653-6.875c-7.178-4.396-11.463-12.035-11.463-20.437 0-8.4 4.285-16.04 11.463-20.436.028-.017.049-.04.076-.058.249-.159.489-.334.709-.539.008-.008.018-.014.026-.021a4.973 4.973 0 00.709-.847c.043-.063.092-.121.132-.187.05-.081.076-.168.121-.251.085-.158.165-.317.233-.483.06-.148.109-.297.155-.449.046-.155.087-.309.119-.468.032-.161.053-.322.068-.484.015-.159.025-.316.025-.476s-.01-.317-.025-.476a4.985 4.985 0 00-.068-.484 4.716 4.716 0 00-.119-.468 4.673 4.673 0 00-.155-.449 4.873 4.873 0 00-.233-.483c-.044-.083-.071-.17-.121-.251-.03-.048-.07-.086-.101-.133a4.993 4.993 0 00-.326-.429c-.101-.122-.2-.244-.311-.354-.109-.109-.229-.207-.35-.307a4.911 4.911 0 00-.434-.33c-.047-.031-.083-.07-.131-.1-7.178-4.396-11.463-12.035-11.463-20.437 0-8.4 4.285-16.04 11.463-20.436a5 5 0 10-5.222-8.527c-10.169 6.227-16.24 17.055-16.24 28.963 0 9.529 3.895 18.359 10.658 24.7-6.762 6.343-10.657 15.172-10.657 24.701zm116.672-14.88a4.998 4.998 0 006.875-1.653 5 5 0 00-1.653-6.875c-7.177-4.396-11.462-12.035-11.462-20.437s4.285-16.04 11.462-20.436a5 5 0 10-5.222-8.527c-10.169 6.227-16.241 17.054-16.241 28.963s6.072 22.738 16.241 28.965zm59.063 43.844a4.998 4.998 0 006.875-1.653 5 5 0 00-1.653-6.875c-7.178-4.396-11.463-12.035-11.463-20.437 0-8.4 4.285-16.04 11.463-20.436a5 5 0 10-5.222-8.527c-10.169 6.227-16.24 17.055-16.24 28.963-.001 11.91 6.071 22.738 16.24 28.965zm-102.64 269.921c-11.581-7.157-26.734-11.216-42.857-11.528-1.126-6.551-3.914-12.216-8.321-16.624-8.243-8.244-20.854-10.877-35.512-7.419-13.799 3.257-27.967 11.62-39.896 23.549S72.25 412.931 68.993 426.73c-3.459 14.656-.825 27.268 7.418 35.511 5.877 5.877 13.974 8.903 23.448 8.903 3.816 0 7.855-.49 12.063-1.483 6.823-1.611 13.736-4.474 20.425-8.395 11.651 6.363 26.465 9.863 41.918 9.863 16.87 0 32.802-4.105 44.862-11.559 12.81-7.918 19.865-18.698 19.865-30.356s-7.054-22.44-19.864-30.358zm-109.502 61.071c-11.159 2.635-20.442.944-26.144-4.757-12.232-12.232-4.846-40.289 16.13-61.266 10.633-10.633 23.106-18.051 35.122-20.887 11.158-2.633 20.442-.943 26.144 4.757 12.232 12.232 4.846 40.289-16.13 61.266-10.633 10.633-23.106 18.051-35.122 20.887zm64.64 1.201c-11.746 0-22.998-2.217-32.374-6.309a101.148 101.148 0 009.928-8.709c11.929-11.929 20.292-26.097 23.549-39.896a54.852 54.852 0 001.358-8.879c28.577.781 52.266 15.058 52.266 31.877 0 17.301-25.062 31.916-54.727 31.916z"/></g><path d="M312.453 242.497h-76.52a5 5 0 110-10h76.52a5 5 0 110 10zm0 20.61h-46.52a5 5 0 110-10h46.52a5 5 0 110 10z" fill="#fff"/><path d="M91.655 115.971a5 5 0 01-5-5c0-3.309-2.692-6-6-6a5 5 0 110-10c3.309 0 6-2.691 6-6a5 5 0 1110 0c0 3.309 2.691 6 6 6a5 5 0 110 10c-3.308 0-6 2.691-6 6a5 5 0 01-5 5z" fill="#ff7eb8"/><path d="M420.606 140.671a5 5 0 01-5-5c0-3.309-2.691-6-6-6a5 5 0 110-10c3.309 0 6-2.691 6-6a5 5 0 1110 0c0 3.309 2.691 6 6 6a5 5 0 110 10c-3.309 0-6 2.691-6 6a5 5 0 01-5 5zm-19.679 328.366a5 5 0 01-5-5c0-3.309-2.691-6-6-6a5 5 0 110-10c3.309 0 6-2.691 6-6a5 5 0 1110 0c0 3.309 2.691 6 6 6a5 5 0 110 10c-3.309 0-6 2.691-6 6a5 5 0 01-5 5z" fill="#01eca5"/><path d="M390.927 86.128a4.998 4.998 0 01-3.536-8.535l10-10a5 5 0 117.071 7.07l-10 10a4.98 4.98 0 01-3.535 1.465zM56.603 361.422a4.998 4.998 0 01-3.536-8.535l10-10a5 5 0 117.071 7.07l-10 10a4.98 4.98 0 01-3.535 1.465z" fill="#6583fe"/></svg>