<svg xmlns="http://www.w3.org/2000/svg" viewBox="0 0 634 592" version="1.1" id="svg118"><path d="M543.06 268.73l1.294 1.033c23.64 18.892 58.265 15.224 77.337-8.192 19.072-23.416 15.369-57.713-8.271-76.604L460.948 63.123c-29.224-23.354-72.028-18.82-95.605 10.128a67.03 67.03 0 00-12.422 23.655L297.417 26.06c-23.02-29.383-65.73-34.718-95.395-11.916-25.656 19.72-33.65 54.66-19.084 83.41l5.545 10.944c-22.613-28.51-64.165-34.226-93.815-12.549-26.642 19.478-35.242 55.135-20.367 84.438l13.059 25.722c-20.598-6.043-43.749-2.343-61.805 11.946-21.643 17.127-30.63 45.547-22.721 71.843l64.09 213.079c8.673 28.833 39.301 45.244 68.411 36.653 29.11-8.59 45.677-38.929 37.005-67.762l-2.479-8.241 56.094 69.546c20.057 24.867 54.952 32.43 83.661 18.13 19.805-9.864 32.63-28.014 36.343-48.065l45.463 61.01c19.652 26.373 55.62 34.9 85.197 20.198 33.56-16.683 47.113-57.154 30.271-90.396l-32.868-64.875c20.05 24.676 54.836 32.21 83.503 17.928 33.546-16.711 47.063-57.195 30.192-90.422l-44.657-87.952z" id="path2" fill="#bee3fd" fill-opacity=".996" fill-rule="nonzero"/><path d="M182.9 296.4s-4.8-38.8-24.7-54.5c-19.8-15.7-47.2-28.7-34.6-34 12.6-5.3 8.4-11.8-3.2-9.6-11.6 2.2-11.6-9.5 16.9-15.5s67.3-6.6 67.8-11.9c.5-5.4-13.7-8.6-31.1-4.8-17.4 3.8-15.6-14.6 17.6-17.7 33.2-3.1 149.3-2.1 190.2 11.9 40.9 13.9-23.2-3.5-66.6-5-43.4-1.5-115-4.9-116.1 0-1.1 4.9 29.6 2.1 30.1 14s-51.1 17-62.4 18c-11.3 1 8.5 18.3-3.8 20.5-12.3 2.2 25.7 16 37.7 30.6 12 14.6 34.2 45.7 34.2 45.7l-48 10.9z" id="path4" fill="#383c64" fill-rule="evenodd" fill-opacity=".521"/><path d="M195.2 418.6c0 20.9-8.5 39.9-22.3 53.6-13.7 13.6-32.5 22-53.4 22-8.5 0-16.6-1.4-24.2-4-13.8-4.7-25.9-13.2-34.8-24.4-10.4-12.9-16.6-29.4-16.6-47.3 0-25.5 12.7-48.1 32.1-61.8 11.1-7.9 24.5-12.8 38.9-13.7 1.5-.1 3.1-.1 4.7-.1 18.9 0 36.2 6.9 49.5 18.4 15.9 14 26.1 34.5 26.1 57.3z" id="path6" fill="#383c64" fill-rule="evenodd" fill-opacity=".263"/><path d="M129.7 465.9c-6.1 1.8-5.4 5.4-3.2 6.1 2.3.7 10.8 0 7.9-3-2.9-3-4.7-3.1-4.7-3.1z" id="path8" fill="#f04d5e" fill-rule="evenodd"/><path d="M106.1 398.2c-3.5 10.8 1 47.4-14.4 44.9S56.1 438 60.6 448c4.4 10-.1 17.9-.1 17.9-10.4-12.9-16.6-29.4-16.6-47.3 0-25.5 12.7-48.1 32.1-61.8 0 0 19.9 6.9 11.3 12-8.6 5.1-26.3 11.4-16.8 18.3 9.5 7 19.6 11 7 16.9-12.6 5.9-13.1 26.8 1.2 20.3 14.3-6.5 13.7-27.8 20-33.1 6.2-5.3 10.9-3.8 7.4 7zm26.5-9.4c-2.6 1.1-5 2.7-6.9 4.8-3.6 4-7.7 10.1-4.4 14 5.4 6.4 10.7-4.3 13.7 2s14.4-9.5 16.3-15.2c1.9-5.7-5.1-21.5-16.3-18.3-11.2 3.2-5.8 3.6-2 8.3 2.1 2.5 1 3.7-.4 4.4zm36.4-27.4c-.2 1.9-1.4 6.2-7.5 9.3-8.1 4.1-11.1-1.7-18.2-11.6-7.2-9.9-19.8 5.3-31.8 9.1s-4.6-7 1.1-8.9c5.7-1.9 2.3-16.2 2.3-16.2 1.5-.1 3.1-.1 4.7-.1 18.9 0 36.1 6.9 49.4 18.4zm3.9 110.8c-13.7 13.6-32.5 22-53.4 22-8.5 0-16.6-1.4-24.2-4 1.3-3.1 2.7-5.8 4.2-7.5 6.6-8.1 9.4-15.4 9.4-15.4s11.9-5 11.2-13.2c-.7-8.2 7.5-18 9.9-7.9 2.4 10.1 25.1 31.1 31.6 26 6.5-5.1 11.3 0 11.3 0zm.4-71.8c.8 0 13.3 6.7 9.3 9s-17.7 1.9-12.2 10.3 10.1 12.6-4.6 16.2c-14.7 3.6-24.4-3.6-28.6 0-4.2 3.6-1.1-10.3 6.1-17.4 7-6.9 30-18.1 30-18.1z" id="path10" fill="#54a3f1" fill-rule="evenodd" fill-opacity="1"/><path d="M344.9 90.3c0 13.2-5.4 25.1-14 33.8a47.39 47.39 0 01-33.6 13.9c-5.3 0-10.5-.9-15.3-2.5-8.7-2.9-16.3-8.3-21.9-15.4-6.5-8.2-10.5-18.5-10.5-29.8 0-16.1 8-30.3 20.2-39 7-5 15.4-8.1 24.5-8.6 1-.1 1.9-.1 2.9-.1 11.9 0 22.8 4.4 31.2 11.6 10.1 8.8 16.5 21.7 16.5 36.1z" id="path12" fill="#d4d4d4" fill-rule="evenodd"/><path d="M303.7 120.1c-3.8 1.1-3.4 3.4-2 3.8 1.4.4 6.8 0 5-1.9-1.8-1.9-3-1.9-3-1.9z" id="path14" fill="#f04d5e" fill-rule="evenodd"/><path d="M288.8 77.4c-2.2 6.8.6 29.9-9.1 28.3-9.7-1.6-22.4-3.2-19.6 3.1 2.8 6.3-.1 11.3-.1 11.3-6.5-8.2-10.5-18.5-10.5-29.8 0-16.1 8-30.3 20.2-39 0 0 12.5 4.4 7.1 7.5-5.4 3.1-16.6 7.2-10.6 11.6 6 4.4 12.4 6.9 4.4 10.6-8 3.7-8.3 16.9.7 12.8 9-4.1 8.6-17.5 12.6-20.9 4.1-3.2 7.1-2.2 4.9 4.5zm16.7-5.9c-1.6.7-3.1 1.7-4.3 3-2.3 2.5-4.9 6.3-2.8 8.8 3.4 4 6.7-2.7 8.6 1.3 1.9 4 9.1-6 10.3-9.6 1.2-3.6-3.2-13.5-10.3-11.6-7.1 2-3.7 2.3-1.3 5.2 1.4 1.7.7 2.5-.2 2.9zm22.9-17.2c-.1 1.2-.9 3.9-4.7 5.9-5.1 2.6-7-1.1-11.5-7.3-4.5-6.2-12.5 3.3-20.1 5.7-7.6 2.4-2.9-4.4.7-5.6 3.6-1.2 1.5-10.2 1.5-10.2 1-.1 1.9-.1 2.9-.1 12 0 22.9 4.4 31.2 11.6zm2.5 69.8a47.39 47.39 0 01-33.6 13.9c-5.3 0-10.5-.9-15.3-2.5.8-1.9 1.7-3.6 2.6-4.7 4.2-5.1 5.9-9.7 5.9-9.7s7.5-3.1 7.1-8.3c-.4-5.2 4.7-11.4 6.2-5s15.8 19.6 19.9 16.4c4.2-3.3 7.2-.1 7.2-.1zm.2-45.2c.5 0 8.4 4.2 5.8 5.7-2.5 1.5-11.2 1.2-7.7 6.5 3.5 5.3 6.4 8-2.9 10.2-9.3 2.3-15.4-2.3-18 0-2.7 2.3-.7-6.5 3.8-11 4.6-4.4 19-11.4 19-11.4z" id="path16" fill="#383c64" fill-rule="evenodd" fill-opacity=".522"/><path d="M169.6 366.6s14.9-8.3 25-1.6c10 6.7.4 24.9-28.8 47.8s-6.5 1.1-8.8-1c-2.3-2.1-28 24.7-32.1 22-4.1-2.8 56.4-51.3 57.6-57.3 1.2-6-12.9-9.9-12.9-9.9z" id="path18" fill="#ffd2ec" fill-rule="evenodd" fill-opacity="1"/><path d="M328.8 57.5s9.4-5.2 15.7-1c6.3 4.2.2 15.7-18.2 30.1-18.4 14.5-4.1.7-5.5-.6-1.4-1.3-17.6 15.6-20.2 13.8-2.6-1.8 35.5-32.3 36.3-36.1.8-3.7-8.1-6.2-8.1-6.2z" id="path20" fill="#ffd2ec" fill-rule="evenodd" fill-opacity="1"/><path d="M377.5 160.9l128 42.1c7.1 2.3 11.3 9.5 9.9 16.8l-20.9 108.1c-1.9 10-13.1 15.1-21.9 10l-119.7-69.6c-5.3-3.1-8.1-9-7.2-15l12.6-80.6c1.4-9.1 10.5-14.7 19.2-11.8z" id="path22" fill="#d1d1d1" fill-rule="evenodd"/><path d="M367.1 146.2l128 42.1c7.1 2.3 11.3 9.5 9.9 16.8l-20.9 108.1c-1.9 10-13.1 15.1-21.9 10l-119.7-69.6c-5.3-3.1-8.1-9-7.2-15l12.6-80.6c1.4-9.1 10.6-14.7 19.2-11.8z" id="path24" fill="#eaeaea" fill-rule="evenodd"/><path d="M371.7 169.4l55.5 20.1c2.1.8 3.3 3 2.9 5.2l-1.4 6.7c-.6 2.8-3.5 4.3-6.1 3.3l-55.2-21.2c-2-.8-3.2-2.9-2.8-5.1l1.1-5.6c.5-2.7 3.3-4.4 6-3.4zM447 196l36 12.8c1.7.6 2.7 2.3 2.3 4.1l-17.8 91c-.5 2.4-3.1 3.6-5.2 2.4l-33.2-18.2c-1.3-.7-2.1-2.2-1.8-3.8l15.1-85.6c.3-2.2 2.5-3.5 4.6-2.7z" id="path26" fill="#fff" fill-rule="evenodd"/><path d="M451 203l25.2 9.4c1.2.5 1.9 1.7 1.7 3l-3.5 18.4c-.3 1.7-2 2.6-3.6 2l-24.7-9.5c-1.2-.5-1.9-1.7-1.7-2.9l2.9-18.4c.3-1.6 2.1-2.6 3.7-2z" id="path28" fill="#54a3f1" fill-rule="evenodd" fill-opacity="1"/><path d="M446 234.6l23 9.4c1.2.5 1.9 1.7 1.6 3v.1c-.3 1.7-2.1 2.7-3.7 2l-22.9-9.6c-1.2-.5-1.8-1.7-1.6-2.9.2-1.6 2-2.6 3.6-2zm-5.7 12.7l-.2 1.1c-.2 1.2.5 2.4 1.6 2.9l22.6 10c1.6.7 3.4-.3 3.7-2l.2-1.1c.2-1.2-.4-2.4-1.6-2.9l-22.6-9.9c-1.6-.9-3.4.2-3.7 1.9zm.9 11.4l23.1 10.7c1.1.5 1.7 1.7 1.5 2.9l-4 22c-.3 1.8-2.4 2.8-4 1.9l-22.9-12.9c-1-.6-1.5-1.7-1.3-2.9l3.8-19.8c.4-1.7 2.2-2.7 3.8-1.9z" id="path30" fill="#eaeaea" fill-rule="evenodd"/><path d="M368.9 192.8l50.5 21c2.6 1.1 4.1 3.8 3.7 6.6l-7.5 50.8c-.6 4.2-5.3 6.5-9 4.5l-49.5-27.3c-2.2-1.2-3.5-3.7-3.1-6.2l6.5-44.5c.6-4.1 4.8-6.5 8.4-4.9z" id="path32" fill="#cbcbcb" fill-rule="evenodd"/><path d="M388.3 255c-4.5 0-8.9-1.7-12.6-5-4.3-3.8-7.2-9.2-8.2-15.2-1-6.1 0-12.1 2.8-17.1 3-5.3 7.7-8.7 13.2-9.6 10.9-1.8 21.6 7.1 23.8 20 1 6.1 0 12.1-2.8 17.1-3 5.3-7.7 8.7-13.2 9.6-1.1.1-2 .2-3 .2zm-2-37.8c-.5 0-.9 0-1.4.1-2.7.4-5 2.2-6.6 5-1.8 3.1-2.4 7-1.7 10.9.7 3.9 2.5 7.4 5.2 9.8 2.4 2.1 5.2 3 7.9 2.6 2.7-.4 5-2.2 6.6-5 1.8-3.1 2.4-7 1.7-10.9-1.2-7.2-6.3-12.5-11.7-12.5z" id="path34" fill="#ff4fb5" fill-rule="nonzero" fill-opacity=".525"/><path d="M379.3 210.2c-5.5.9-10.2 4.3-13.2 9.6-2.8 4.9-3.8 11-2.8 17.1 1 6.1 3.9 11.5 8.2 15.2 3.7 3.3 8.1 5 12.7 5 1 0 1.9-.1 2.9-.2.3-.1.7-.1 1-.2l-1.9-9.1c-.2.1-.4.1-.6.1-2.7.4-5.5-.5-7.9-2.6-2.7-2.3-4.5-5.8-5.2-9.8-.7-3.9-.1-7.8 1.7-10.9 1.6-2.8 3.9-4.6 6.6-5 .5-.1.9-.1 1.4-.1 2.7 0 5.3 1.3 7.4 3.5 1.9 2.1 3.4 4.9 4.1 8.2l9.1-2.2c-2.7-12.1-13-20.4-23.5-18.6z" id="path36" fill="#ff4fb5" fill-rule="evenodd" fill-opacity="1"/><path d="M458.3 293.5l-22-11.7 4.4-20.4 1 .2-4.2 19.6 21.3 11.4z" id="path38" fill="#2a2c7b" fill-rule="evenodd"/><path d="M452.6 287.4l1.8-12.9-6.5 11.6 2.7-17.2-8.8 14V276l-6.7 4.8-.6-.9 8.3-6v5.4l9.5-15.1-2.5 16.4 6.4-11.5-1.9 13.9 1.9-2.8 5.1-1.3.2 1-4.7 1.2z" id="path40" fill="#54a3f1" fill-rule="evenodd" fill-opacity="1"/><path d="M243.9 283c-3.2-10.2-18.3-22.2-31.8-25.6-13.5-3.4-45.6-20.7-38.1-10.4 7.5 10.4 4.5 38.4 5.7 55.5.6 8.2 10.6 19.7 10.6 19.7 5.9 5.7 15.4 9.5 23.5 9.5 18.6 0 33.7-15.1 33.7-33.7-.1-5.3-1.3-10.4-3.6-15z" id="path42" fill="#ff86cd" fill-rule="evenodd" fill-opacity="1"/><path d="M230.4 317.6s-20.1 12-31.6.4 3.1-42-5.7-51.9c-8.8-9.9 25.9 1.5 34.2 10.2 8.3 8.7 15.9 23.1 3.1 41.3z" id="path44" fill="#ff4fb5" fill-rule="evenodd" fill-opacity="1"/><path d="M201.1 267.1s13.6 2.2 20.6 10.7c6.9 8.5 4.8 17.6-2.1 14.9-6.9-2.8-6.4-12.6-12.6-16.9-6.2-4.3-10.7-9.9-5.9-8.7z" id="path46" fill="#fff" fill-rule="evenodd"/><path d="M248.7 307.9l-9.4-7.4s-7-3-14.2 3.7c-7.2 6.7-13.2 15.9-8 21.7 5.2 5.8 12.2 12.6 12.2 12.6l21.4-28z" id="path48" fill="#343438" fill-rule="evenodd"/><path d="M509.4 537.6c-2.1 2.7-5.6 4.3-9.4 3.8l-100.2-14.2c-7.3-1-14-4.4-19.2-9.5-25.2-25.1-103-103.3-135.2-143-6.3-7.8-17.1-19.5-19.4-26.1-4.6-13.2-.4-23.5 6.4-31.2 10.6-11.9 27.5-17.5 27.5-17.5l20.6 6.8 192.8 124c7.7 5 13.3 12.5 15.9 21.3l21.9 76.3c1.1 3.5.3 6.8-1.7 9.3z" id="path50" fill="#eaeaea" fill-rule="evenodd"/><path d="M509.4 537.6c1.9-2.4 2.8-5.8 1.8-9.1l-21.9-76.3c-2.5-8.6-7.9-16-15.3-21l-.7-.1c-.2-.1-21.9-13.7-45.9 1.7-28.2 16.3-39.3 38.5-43.7 54.3-3.2 11.4-3.6 23.4-3.6 30.1l.6.6c5.2 5.2 11.9 8.5 19.2 9.5l100.2 14.2c3.7.4 7.2-1.2 9.3-3.9z" id="path52" fill="#ffb884" fill-rule="evenodd" fill-opacity="1"/><path d="M508.8 537.6c-6.2 0-12.2-2-17.1-5.6l-86.2-62.8c-7.1-5.1-13.9-10.6-20.4-16.4l-90.3-80c2.7-7.5 7.1-12.9 7.9-17.2 1.3-7.1 28.9-6.1 28.9-6.1l1.5-1.4-1.6-.3 1.6-11.6h-44l-6.4 25.8-47.3-42c-1.6-1.5-4.2-1.2-5.5.6-5.2 7.3-7.9 16.6-3.9 28 2.3 6.5 13.2 18.3 19.4 26.1 32.2 39.7 110 117.9 135.2 143 5.2 5.2 11.9 8.5 19.2 9.5L500 541.4c3.8.5 7.3-1.1 9.4-3.8z" id="path54" fill="#dad9d6" fill-rule="evenodd"/><path d="M509.4 537.6h-.6c-6.2 0-12.2-2-17.1-5.6l-86.2-62.8c-3.4-2.5-6.7-5-10-7.6-6.2 9-9.8 17.9-11.8 25.4-3.2 11.4-3.6 23.4-3.6 30.1l.6.6c3.2 3.2 7.1 5.7 11.3 7.4.5.2 1.1.4 1.6.6 1.5.5 3.1.9 4.7 1.2.2 0 .3.1.5.1.4.1.8.1 1.1.2l100.2 14.2c.5.1 1 .1 1.4.1.9 0 1.7-.1 2.6-.3.1 0 .2-.1.3-.1 1.2-.4 2.3-.9 3.3-1.7.2-.1.3-.3.5-.4.4-.5.8-.9 1.2-1.4z" id="path56" fill="#f79026" fill-rule="evenodd" fill-opacity="1"/><path d="M497.2 498.7s-17.4-59.3-38.4-73.4c-21-14.1-100.6-64.3-100.6-64.3s-19.4-4.1 6.3 13.5 61 42.1 77.7 53.4c16.7 11.3 56.5 99.7 59.9 99.2 3.5-.4-4.9-28.4-4.9-28.4z" id="path58" fill="#fff" fill-rule="evenodd"/><path d="M254.266 306.333l169.416 127.932-.603.798L253.663 307.13z" id="path60" fill="#ffb884" fill-rule="evenodd" fill-opacity="1"/><path d="M383.1 486.8c4.4-15.9 15.6-38.2 43.9-54.6 24.3-15.6 46.3-1.8 46.5-1.7l-.3.4c-.2-.1-21.9-13.7-45.9 1.7-28.2 16.3-39.3 38.5-43.7 54.3-4.7 17.1-2.8 30.5-2.8 30.6.1.1-2.4-13.5 2.3-30.7z" id="path62" fill="#fdbb48" fill-rule="evenodd"/><path d="M444.4 412.4c-.1 0-.2-.1-.3-.2-.1-.2-.1-.4.1-.5l.2-.1c.2-.1.4-.1.5.1.1.2.1.4-.1.5l-.2.1c-.1.1-.2.1-.2.1zm2-1.3c-.1 0-.2-.1-.3-.2-.1-.2-.1-.4.1-.5.5-.4 1.1-.8 1.8-1.2.2-.1.4-.1.5.1.1.2.1.4-.1.5-.7.5-1.3.9-1.8 1.3zm3.5-2.5c-.1 0-.2-.1-.3-.1-.1-.2-.1-.4.1-.5.6-.4 1.1-.8 1.7-1.3.2-.1.4-.1.5.1.1.2.1.4-.1.5-.6.5-1.2.9-1.7 1.3 0-.1-.1 0-.2 0zm3.5-2.7c-.1 0-.2 0-.3-.1-.1-.2-.1-.4.1-.5.6-.4 1.1-.9 1.7-1.4.2-.1.4-.1.5.1.1.2.1.4-.1.5-.6.5-1.1.9-1.7 1.4zm3.4-2.8c-.1 0-.2 0-.3-.1-.1-.2-.1-.4 0-.5.5-.5 1.1-.9 1.6-1.4.1-.1.4-.1.5 0 .1.1.1.4 0 .5-.6.5-1.1 1-1.7 1.4 0 .1 0 .1-.1.1zm3.2-2.9c-.1 0-.2 0-.3-.1-.1-.1-.1-.4 0-.5.5-.5 1.1-1 1.6-1.5.1-.1.4-.1.5 0 .1.1.1.4 0 .5-.5.5-1.1 1-1.6 1.5 0 .1-.1.1-.2.1zm3.2-3c-.1 0-.2 0-.3-.1-.1-.1-.1-.4 0-.5.5-.5 1-1 1.5-1.6.1-.1.4-.2.5 0 .1.1.2.4 0 .5-.5.5-1 1.1-1.5 1.6-.1.1-.2.1-.2.1zm2.9-3.2c-.1 0-.2 0-.2-.1-.2-.1-.2-.4 0-.5.5-.6.9-1.1 1.4-1.7.1-.2.4-.2.5-.1.2.1.2.4.1.5-.4.6-.9 1.1-1.4 1.7-.2.1-.3.2-.4.2zm2.7-3.5c-.1 0-.1 0-.2-.1-.2-.1-.2-.3-.1-.5l1.2-1.8c.1-.2.3-.2.5-.1s.2.3.1.5l-1.2 1.8c-.1.2-.2.2-.3.2zm2.3-3.7h-.2c-.2-.1-.2-.3-.1-.5.4-.7.7-1.3.9-1.9.1-.2.3-.3.5-.2.2.1.3.3.2.5-.3.6-.6 1.3-1 2-.1 0-.2.1-.3.1zm1.7-4h-.1c-.2-.1-.3-.3-.2-.5.2-.7.4-1.4.5-2.1 0-.2.2-.3.4-.3s.3.2.3.4c-.1.7-.3 1.4-.5 2.2-.1.2-.3.3-.4.3zm.8-4.2c-.2 0-.4-.2-.4-.4v-.4c0-.6 0-1.1-.1-1.7 0-.2.1-.4.3-.4.2 0 .4.1.4.3.1.6.1 1.2.1 1.8v.5c0 .1-.1.3-.3.3zm-.6-4.3c-.2 0-.3-.1-.3-.2-.2-.7-.5-1.3-.9-1.9-.1-.2 0-.4.1-.5.2-.1.4 0 .5.1.4.7.7 1.3.9 2 .1.2 0 .4-.2.5zm-2.1-3.8c-.1 0-.2 0-.3-.1-.4-.5-.9-1.1-1.4-1.6-.1-.1-.1-.4 0-.5.1-.1.4-.1.5 0 .5.5 1.1 1.1 1.5 1.6.1.2.1.4-.1.5-.1.1-.2.1-.2.1zm-50.5-2.1h-1.5c-.2 0-.4-.2-.3-.4 0-.2.2-.4.4-.3.7 0 1.4.1 2.1 0 .2 0 .4.2.4.4s-.2.4-.4.4c-.2-.1-.4-.1-.7-.1zm2.9-.2c-.2 0-.3-.1-.4-.3 0-.2.1-.4.3-.4l2.1-.3c.2 0 .4.1.4.3 0 .2-.1.4-.3.4-.6.2-1.3.3-2.1.3.1 0 .1 0 0 0zm-6.5-.1c-.8-.2-1.6-.4-2.2-.6-.2-.1-.3-.3-.2-.5.1-.2.3-.3.5-.2.6.2 1.3.4 2 .6.2 0 .3.2.3.4s-.2.3-.4.3zm10.9-.5c-.2 0-.3-.1-.4-.3 0-.2.1-.4.3-.4.7-.1 1.4-.3 2.1-.4.2 0 .4.1.4.3 0 .2-.1.4-.3.4-.7.2-1.4.3-2.1.4zm40.1-.2c-.1 0-.2 0-.2-.1l-1.8-1.2c-.2-.1-.2-.3-.1-.5s.3-.2.5-.1c.6.4 1.3.8 1.8 1.2.2.1.2.3.1.5s-.2.2-.3.2zm-35.9-.6c-.2 0-.3-.1-.4-.3 0-.2.1-.4.3-.4.7-.2 1.4-.3 2.1-.5.2 0 .4.1.4.3 0 .2-.1.4-.3.4-.6.2-1.3.3-2.1.5.1 0 .1 0 0 0zm-19.1-.3c-.1 0-.1 0-.2-.1-.6-.4-1.2-.9-1.7-1.5-.1-.1-.1-.4 0-.5.1-.1.4-.1.5 0 .5.5 1 1 1.6 1.4.2.1.2.3.1.5 0 .1-.2.2-.3.2zm23.4-.6c-.2 0-.3-.1-.4-.3 0-.2.1-.4.3-.4.7-.2 1.4-.3 2.1-.5.2 0 .4.1.4.3 0 .2-.1.4-.3.4-.6.1-1.3.3-2.1.5zm27.8-.7h-.1c-.6-.3-1.3-.5-2-.8-.2-.1-.3-.3-.2-.5.1-.2.3-.3.5-.2.7.2 1.4.5 2.1.8.2.1.3.3.2.5-.2.1-.3.2-.5.2zm-23.6-.3c-.2 0-.3-.1-.4-.3 0-.2.1-.4.3-.4.7-.1 1.4-.3 2.1-.4.2 0 .4.1.4.3 0 .2-.1.4-.3.4-.6.1-1.3.3-2.1.4.1 0 .1 0 0 0zm4.3-.8c-.2 0-.3-.1-.4-.3 0-.2.1-.4.3-.4.7-.1 1.4-.2 2.2-.3.2 0 .4.1.4.3 0 .2-.1.4-.3.4-.7.1-1.4.2-2.2.3.1 0 0 0 0 0zm15.2-.2s-.1 0 0 0c-.8-.2-1.5-.3-2.2-.4-.2 0-.3-.2-.3-.4s.2-.3.4-.3c.7.1 1.5.2 2.2.4.2 0 .3.2.3.4-.1.2-.2.3-.4.3zm-10.9-.4c-.2 0-.3-.1-.4-.3 0-.2.1-.4.3-.4.7-.1 1.5-.1 2.2-.2.2 0 .4.1.4.3 0 .2-.1.4-.3.4-.7.1-1.4.1-2.2.2.1 0 .1 0 0 0zm-39.1-.2c-.1 0-.2-.1-.3-.2-.4-.6-.7-1.3-1-2-.1-.2 0-.4.2-.5.2-.1.4 0 .5.2.3.7.6 1.3.9 1.9.1.2 0 .4-.1.5-.1.1-.1.1-.2.1zm45.7 0h-2.2c-.2 0-.4-.2-.4-.4s.2-.4.4-.4h.3c.7 0 1.3 0 1.9.1.2 0 .4.2.3.4 0 .2-.1.3-.3.3zm-47.3-4c-.2 0-.3-.1-.4-.3-.2-.7-.3-1.4-.4-2.2 0-.2.1-.4.3-.4.2 0 .4.1.4.3.1.7.2 1.4.4 2.1.1.2 0 .4-.3.5.1 0 0 0 0 0zm-.6-4.3c-.2 0-.3-.1-.4-.3 0-.7-.1-1.4-.1-2.2 0-.2.2-.4.4-.4s.4.2.4.4c0 .7 0 1.5.1 2.2 0 .1-.2.3-.4.3zm-.1-4.4c-.2 0-.4-.2-.4-.4 0-.8.1-1.5.3-2.2 0-.2.2-.3.4-.3s.3.2.3.4c-.1.7-.2 1.4-.2 2.1 0 .3-.2.4-.4.4zm.8-4.2h-.1c-.2-.1-.3-.3-.2-.5.2-.7.5-1.4.9-2 .1-.2.3-.2.5-.1s.2.3.1.5c-.3.6-.6 1.3-.8 1.9-.1.1-.2.2-.4.2zm2-3.8c-.1 0-.2 0-.2-.1-.2-.1-.2-.3-.1-.5.4-.6.9-1.1 1.4-1.7.1-.1.4-.1.5 0 .1.1.1.4 0 .5-.5.5-1 1.1-1.4 1.6 0 .2-.1.2-.2.2zm3-3.1c-.1 0-.2 0-.3-.1-.1-.2-.1-.4 0-.5.5-.5 1.1-.9 1.8-1.3.2-.1.4-.1.5.1.1.2.1.4-.1.5-.6.4-1.2.8-1.7 1.3zm3.6-2.4c-.1 0-.2-.1-.3-.2-.1-.2 0-.4.1-.5.6-.4 1.3-.7 1.9-1 .2-.1.4 0 .5.2.1.2 0 .4-.2.5-.7.3-1.3.7-1.9 1 0-.1-.1 0-.1 0zm3.9-1.9c-.1 0-.3-.1-.3-.2-.1-.2 0-.4.2-.5.7-.3 1.3-.5 2-.8.2-.1.4 0 .5.2.1.2 0 .4-.2.5-.7.3-1.4.5-2 .8-.1-.1-.2 0-.2 0zm4.1-1.6c-.2 0-.3-.1-.3-.3-.1-.2 0-.4.2-.5l2.1-.6c.2-.1.4.1.4.2.1.2-.1.4-.2.5l-2.1.6zm4.2-1.2c-.2 0-.3-.1-.4-.3-.1-.2.1-.4.3-.4.7-.2 1.4-.4 2.1-.5.2 0 .4.1.4.3 0 .2-.1.4-.3.4-.7.1-1.4.3-2.1.5zm4.2-1c-.2 0-.3-.1-.4-.3 0-.2.1-.4.3-.4.7-.2 1.4-.3 2.1-.4.2 0 .4.1.4.3 0 .2-.1.4-.3.4-.6.1-1.3.2-2.1.4zm4.3-.9c-.2 0-.3-.1-.4-.3 0-.2.1-.4.3-.4.7-.1 1.4-.3 2.2-.4.2 0 .4.1.4.3 0 .2-.1.4-.3.4-.7.2-1.5.3-2.2.4zm4.3-.7c-.2 0-.3-.1-.4-.3 0-.2.1-.4.3-.4.7-.1 1.4-.2 2.2-.3.2 0 .4.1.4.3 0 .2-.1.4-.3.4-.8.1-1.5.2-2.2.3zm4.3-.6c-.2 0-.3-.1-.4-.3 0-.2.1-.4.3-.4.7-.1 1.4-.2 2.2-.3.2 0 .4.1.4.3 0 .2-.1.4-.3.4-.7.1-1.5.2-2.2.3zm4.3-.6c-.2 0-.3-.1-.4-.3 0-.2.1-.4.3-.4.7-.1 1.4-.2 2.2-.3.2 0 .4.1.4.3 0 .2-.1.4-.3.4-.7.1-1.4.2-2.2.3zm4.3-.6c-.2 0-.3-.1-.4-.3 0-.2.1-.4.3-.4l2.2-.3c.2 0 .4.1.4.3 0 .2-.1.4-.3.4l-2.2.3c.1 0 0 0 0 0zm4.4-.5c-.2 0-.3-.1-.4-.3 0-.2.1-.4.3-.4l2.2-.2c.2 0 .4.1.4.3 0 .2-.1.4-.3.4zm4.3-.5c-.2 0-.3-.1-.4-.3 0-.2.1-.4.3-.4l2.2-.2c.2 0 .4.1.4.3 0 .2-.1.4-.3.4zm4.3-.4c-.2 0-.3-.1-.4-.3 0-.2.1-.4.3-.4l2.2-.2c.2 0 .4.1.4.3 0 .2-.1.4-.3.4zm4.4-.5c-.2 0-.3-.1-.4-.3 0-.2.1-.4.3-.4l2.2-.3c.2 0 .4.1.4.3 0 .2-.1.4-.3.4zm4.3-.6c-.2 0-.3-.1-.4-.3 0-.2.1-.4.3-.4.7-.1 1.4-.2 2.2-.3.2 0 .4.1.4.3 0 .2-.1.4-.3.4-.7.2-1.4.3-2.2.3zm4.3-.5c-.2 0-.3-.1-.4-.3 0-.2.1-.4.3-.4.7-.1 1.4-.2 2.2-.3.2 0 .4.1.4.3 0 .2-.1.4-.3.4-.7.1-1.4.2-2.2.3zm4.3-.6c-.2 0-.3-.1-.4-.3 0-.2.1-.4.3-.4.7-.1 1.4-.2 2.2-.3.2 0 .4.1.4.3 0 .2-.1.4-.3.4-.7.1-1.4.2-2.2.3.1 0 .1 0 0 0zm4.3-.7c-.2 0-.3-.1-.4-.3 0-.2.1-.4.3-.4.7-.1 1.4-.2 2.1-.4.2 0 .4.1.4.3 0 .2-.1.4-.3.4-.6.2-1.3.3-2.1.4.1 0 .1 0 0 0zm4.3-.7c-.2 0-.3-.1-.4-.3 0-.2.1-.4.3-.4.7-.1 1.4-.3 2.1-.4.2 0 .4.1.4.3 0 .2-.1.4-.3.4-.6.1-1.3.2-2.1.4.1 0 .1 0 0 0zm4.3-.9c-.2 0-.3-.1-.4-.3 0-.2.1-.4.3-.4.7-.2 1.4-.3 2.1-.5.2 0 .4.1.4.3 0 .2-.1.4-.3.4-.6.2-1.3.4-2.1.5.1 0 0 0 0 0zm4.3-.9c-.2 0-.3-.1-.4-.3 0-.2.1-.4.3-.4.7-.2 1.4-.3 2.1-.5.2-.1.4.1.4.3.1.2-.1.4-.3.4-.6.1-1.3.3-2.1.5zm4.2-1.1c-.2 0-.3-.1-.3-.3-.1-.2.1-.4.2-.4l2.1-.6c.2-.1.4 0 .5.2.1.2 0 .4-.2.5-.8.1-1.5.4-2.3.6.1 0 0 0 0 0zm4.1-1.3c-.2 0-.3-.1-.3-.2-.1-.2 0-.4.2-.5.7-.2 1.4-.5 2-.7.2-.1.4 0 .5.2.1.2 0 .4-.2.5-.7.2-1.4.5-2.1.7zm4.1-1.5c-.1 0-.3-.1-.3-.2-.1-.2 0-.4.2-.5.7-.3 1.3-.6 2-.8.2-.1.4 0 .5.2.1.2 0 .4-.2.5-.7.3-1.3.6-2 .9-.1-.1-.1-.1-.2-.1zm4-1.8c-.1 0-.3-.1-.3-.2-.1-.2 0-.4.2-.5.7-.3 1.3-.7 1.9-1 .2-.1.4 0 .5.1.1.2 0 .4-.1.5-.6.3-1.3.7-1.9 1-.2.1-.2.1-.3.1zm3.8-2.1c-.1 0-.2-.1-.3-.2-.1-.2-.1-.4.1-.5l1.8-1.2c.2-.1.4-.1.5.1.1.2.1.4-.1.5l-1.8 1.2c0 .1-.1.1-.2.1zm3.6-2.5c-.1 0-.2 0-.3-.1-.1-.2-.1-.4.1-.5.6-.4 1.1-.9 1.6-1.4.1-.1.4-.1.5 0 .1.1.1.4 0 .5-.5.5-1.1 1-1.7 1.4 0 .1-.1.1-.2.1zm3.2-2.9c-.1 0-.2 0-.3-.1-.1-.1-.2-.4 0-.5.5-.5 1-1.1 1.4-1.6.1-.2.4-.2.5-.1.2.1.2.4.1.5-.5.6-.9 1.1-1.5 1.7 0 .1-.1.1-.2.1zm2.7-3.4c-.1 0-.1 0-.2-.1-.2-.1-.2-.3-.1-.5.4-.6.8-1.2 1.1-1.8.1-.2.3-.2.5-.1s.2.3.1.5c-.4.6-.7 1.3-1.2 1.9.1.1 0 .1-.2.1zm2.1-3.7h-.1c-.2-.1-.3-.3-.2-.5.3-.6.5-1.3.8-2 .1-.2.3-.3.5-.2.2.1.3.3.2.5-.2.7-.5 1.4-.8 2-.1.1-.2.2-.4.2zm1.4-4.1c-.3-.1-.4-.3-.4-.5.2-.7.3-1.4.5-2.1 0-.2.2-.3.4-.3s.3.2.3.4c-.1.7-.3 1.4-.5 2.1 0 .3-.1.4-.3.4zm.9-4.3c-.3 0-.4-.2-.4-.4l.3-2.1c0-.2.2-.3.4-.3s.3.2.3.4c-.1.7-.2 1.4-.3 2.2 0 .1-.1.2-.3.2zm.5-4.3c-.2 0-.4-.2-.4-.4 0-.7.1-1.4.1-2.2 0-.2.2-.3.4-.4.2 0 .4.2.4.4 0 .7 0 1.5-.1 2.2-.1.2-.2.4-.4.4zm.1-4.4c-.2 0-.4-.2-.4-.4 0-.7 0-1.4-.1-2.2 0-.2.1-.4.3-.4.2 0 .4.1.4.3 0 .7.1 1.5.1 2.2 0 .3-.1.5-.3.5zm-.3-4.3c-.2 0-.3-.1-.4-.3l-.3-2.1c0-.2.1-.4.3-.4.2 0 .4.1.4.3.1.7.2 1.4.3 2.2.1.1-.1.3-.3.3zm-.6-4.3c-.2 0-.3-.1-.4-.3-.1-.7-.3-1.4-.4-2.1 0-.2.1-.4.3-.4.2 0 .4.1.4.3.2.7.3 1.4.4 2.1.1.1-.1.3-.3.4zm-1-4.3c-.2 0-.3-.1-.4-.3l-.6-2.1c-.1-.2.1-.4.2-.5.2-.1.4.1.5.2l.6 2.1c.1.4 0 .6-.3.6.1 0 .1 0 0 0zm-1.2-4.1c-.2 0-.3-.1-.3-.2-.2-.7-.5-1.4-.7-2-.1-.2 0-.4.2-.5.2-.1.4 0 .5.2.3.7.5 1.4.7 2.1.1.2 0 .4-.2.5-.1-.1-.2-.1-.2-.1zm-1.5-4.1c-.1 0-.3-.1-.3-.2-.3-.7-.6-1.3-.8-2-.1-.2 0-.4.2-.5.2-.1.4 0 .5.2.3.7.6 1.3.9 2 .1.2 0 .4-.2.5zm-1.8-4c-.1 0-.3-.1-.3-.2-.3-.7-.6-1.3-1-1.9-.1-.2 0-.4.2-.5.2-.1.4 0 .5.2.3.6.7 1.3 1 2 .1.2 0 .4-.2.5-.1-.1-.1-.1-.2-.1zm-2-3.9c-.1 0-.3-.1-.3-.2-.3-.6-.7-1.3-1.1-1.9-.1-.2 0-.4.1-.5.2-.1.4 0 .5.1.4.6.7 1.3 1.1 1.9.1.2 0 .4-.1.5 0 .1-.1.1-.2.1zm-2.1-3.7c-.1 0-.2-.1-.3-.2-.4-.6-.8-1.2-1.1-1.8-.1-.2-.1-.4.1-.5.2-.1.4-.1.5.1.4.6.8 1.2 1.2 1.9.1.2 0 .4-.1.5-.2-.1-.3 0-.3 0zm-2.4-3.7c-.1 0-.2-.1-.3-.2l-1.2-1.8c-.1-.2-.1-.4.1-.5.2-.1.4-.1.5.1l1.2 1.8c.1.2.1.4-.1.5 0 .1-.1.1-.2.1zm-2.4-3.6c-.1 0-.2-.1-.3-.1-.4-.6-.9-1.2-1.3-1.7-.1-.2-.1-.4.1-.5.2-.1.4-.1.5.1.4.6.9 1.2 1.3 1.8.1.2.1.4-.1.5-.1-.1-.2-.1-.2-.1zm-2.7-3.5c-.1 0-.2 0-.3-.1-.5-.6-.9-1.1-1.4-1.7-.1-.2-.1-.4.1-.5.2-.1.4-.1.5.1.5.6.9 1.1 1.4 1.7.1.2.1.4-.1.5zm-2.7-3.3c-.1 0-.2 0-.3-.1-.5-.6-.9-1.1-1.4-1.7-.1-.2-.1-.4 0-.5.2-.1.4-.1.5 0 .5.5 1 1.1 1.4 1.7.1.2.1.4 0 .5-.1 0-.1.1-.2.1zm-2.9-3.3c-.1 0-.2 0-.3-.1-.5-.5-1-1.1-1.5-1.6-.1-.1-.1-.4 0-.5.1-.1.4-.1.5 0 .5.5 1 1.1 1.5 1.6.1.1.1.4 0 .5 0 0-.1.1-.2.1zm-3-3.2c-.1 0-.2 0-.3-.1-.5-.5-1-1.1-1.5-1.6-.1-.1-.1-.4 0-.5.1-.1.4-.1.5 0 .5.5 1 1 1.5 1.6.1.1.1.4 0 .5 0 0-.1.1-.2.1zm-3-3.1c-.1 0-.2 0-.3-.1-.5-.5-1-1-1.6-1.5-.1-.1-.1-.4 0-.5.1-.1.4-.2.5 0 .5.5 1 1 1.6 1.5.1.1.1.4 0 .5 0 0-.1.1-.2.1zm-3.2-3c-.1 0-.2 0-.2-.1-.5-.5-1.1-1-1.6-1.5-.1-.1-.2-.4 0-.5.1-.1.4-.2.5 0 .5.5 1.1 1 1.6 1.5.1.1.2.4 0 .5-.1 0-.2.1-.3.1zm-3.2-3c-.1 0-.2 0-.2-.1-.6-.5-1.1-1-1.6-1.4-.2-.1-.2-.4 0-.5.1-.2.4-.2.5 0 .5.5 1.1.9 1.7 1.4.2.1.2.4 0 .5-.2.1-.3.1-.4.1zm-3.3-2.8c-.1 0-.2 0-.2-.1-.6-.5-1.2-1-1.7-1.4-.2-.1-.2-.4-.1-.5.1-.2.4-.2.5-.1.5.4 1.1.9 1.7 1.4.2.1.2.4 0 .5 0 .2-.1.2-.2.2zm-3.5-2.7c-.1 0-.2 0-.2-.1-1.1-.9-1.7-1.3-1.8-1.3-.2-.1-.2-.3-.1-.5s.3-.2.5-.1c0 0 .6.5 1.8 1.3.2.1.2.4.1.5 0 .1-.2.2-.3.2z" id="path64" fill="#383c64" fill-rule="nonzero" stroke="#979797" fill-opacity="1"/><path d="M236.6 480.3s-14.5-1.9-15.7 15.1c-1.2 17-4.1 34.6 5.8 36.2 9.9 1.6 15.9-18.2 17.5-25.8 1.5-7.6 4.4-21.6-7.6-25.5z" id="path66" fill="#f79026" fill-rule="evenodd"/><path d="M251.7 467.4s-6.9 16-7.9 21.2c-.9 5.2-1.9 23.4-7.9 22.5-6-.9-11.3-11.6-8.5-21.8 2.8-10.2 7.9-26.6 7.9-26.6z" id="path68" fill="#0065a3" fill-rule="evenodd"/><path d="M381.8 371.8l-15.1-9.7-15.8-10.2c-36.7-.3-46.3-11.1-53-7.6-6.7 3.5-6.5 19.8-9.6 38.7-.1.8-.3 1.6-.4 2.3-3.2 17.9-8.8 32.9-11.2 39.4-2.5 6.8-17.9 45.7-19.8 50.8-1.9 5-7.6 6.3-17.9 2.8-10.4-3.5-16.7-8.8-14.8-14.5.3-.8 1-2.9 2.2-6 7.2-19.4 28.8-77.2 27.8-91.8-1.1-17-8.3-9.4-9.1-29.3-.3-6.6 3.7-11.4 9.2-14.9 10.9-7 27.5-8.7 27.5-8.7 18.6-4.4 47.5 9.1 63.9 12 16.4 2.9 22 14.4 24.9 20.7 2.5 6.3 10.9 25.4 11.2 26z" id="path70" fill="#009eff" fill-rule="evenodd"/><path d="M366.7 362.1l-15.8-10.2c-36.7-.3-46.3-11.1-53-7.6-6.7 3.5-6.5 19.8-9.6 38.7-.1.8-.3 1.6-.4 2.3 0 0 3.6-43.6 10.1-46.8 6.5-3.2 29.1-1.3 44.8 1.3 15.7 2.6 20.5 12.8 20.5 12.8zm-86.8 4.5l2.1 10.9s-5.1 20-17.3 0c0 0-2.6-5.1-4.1-2.9-1.5 2.2-23 77.3-21.3 81.7 1.7 4.4 4.2 12.6 9.6 15.1 5.4 2.5-7.5 5.1-13.9 0-3.6-2.8-6.6-8.8-8.7-13.6 7.2-19.4 28.8-77.2 27.8-91.8-1.1-17-8.3-9.4-9.1-29.3-.3-6.6 3.7-11.4 9.2-14.9l23.6 36.7 10.6 10z" id="path72" fill="#0086d8" fill-rule="evenodd"/><path d="M377 238.6c-1 1.2.6 3.2-1 5.3-1.6 2.2-6.3 1.2-9.3 1.4-1 .1-2.8 1.2-4.6 2.6-3.6 2.7-7.6 6.6-7.6 6.6h-.9l-8.3-5.4s7.3-5.7 11.3-8.7c4-3 6-11.7 9.3-12.4 3.4-.7 8.9 6.1 14.3 2.9 5.2-3.1 7.9-6 8.5-4.3v.1c.6 2.1-10.7 10.7-11.7 11.9z" id="path74" fill="#009eff" fill-rule="evenodd"/><path d="M377 238.6c-1 1.2.6 3.2-1 5.3-1.6 2.2-6.3 1.2-9.3 1.4-1 .1-2.8 1.2-4.6 2.6l-2.2-1.3s6.8-4.3 10.3-3.6c3.5.7 2.9-4.8 5.2-6.2 1.9-1.2 10.2-7.8 13.3-10.3v.1c.6 2.2-10.7 10.8-11.7 12z" id="path76" fill="#0086d8" fill-rule="evenodd"/><path d="M364.4 255s-.8.7-2 2c-6.5 6.4-26.3 25.9-28.7 28.2-2.8 2.8-9.5 4.3-13.7 0-1.4-1.4-3.9-3.8-6.8-6.7-6-5.8-13.4-13.3-15.3-16.4-2.7-4.6 0-22.9 0-22.9s10.7 3.7 24 21.9c0 0 2.6 4.5 8 0s23.2-23 23.2-23 12.9 3.7 11.3 16.9z" id="path78" fill="#fed58d" fill-rule="evenodd"/><path d="M362.3 257c-6.5 6.4-26.3 25.9-28.7 28.2-2.8 2.8-9.5 4.3-13.7 0-1.4-1.4-3.9-3.8-6.8-6.7l-15.3-24.2 1-5s15.4 19 18.7 22.9c3.3 4 8.9 7.4 14.2 1.8 5.3-5.6 16-15.7 19.7-18.7 3.6-3 4.5-7.8 2.6-9.7-1.9-1.9-.1-4.9 3.5-.6 2.5 2.9 4 8.5 4.8 12z" id="path80" fill="#ffb884" fill-rule="evenodd" fill-opacity="1"/><path d="M310.5 315.1c1.6 3.8-1.8 8.5-12.7 12.2-10.9 3.8-43.7 2.3-47.1-2.2-3.4-4.4 5.4-28.5 3.3-37.4-2-8.9-14.3-21.8-6.6-29 7.7-7.2 20.3-17.6 27.6-18.6 7.2-.9 19.8-4.1 24.2 0 0 0 6.5 21.1 9.8 26.8 1.5 2.6 3 6.7 3.5 11.1.6 5.2-.1 10.9-3.5 15.1-6 7.3-.7 17 1.2 21.2.2.4.3.6.3.8z" id="path82" fill="#ffb884" fill-rule="evenodd" fill-opacity="1"/><path d="M310.3 314.4c-3 3.5-8.8 8.8-14.7 10.8-8.9 2.9-14.4-.9-7.7-2.1 6.7-1.2 12.2-7.9 3.9-4.1-8.3 3.9-34.5 1-34.5 1l-1-19.3s35.3-8.1 41.6-8.1c6.4 0 14.5-6.5 14.6-9.7 0-1.5.1-3.3.2-4.9.6 5.2-.1 10.9-3.5 15.1-6.2 7.4-.9 17.1 1.1 21.3z" id="path84" fill="#ff4fb5" fill-rule="evenodd" fill-opacity="1"/><path d="M273.8 347.1s4.8 9.7 9.5 13.5c4.8 3.8 7.1 8.7 5 7.9-2.2-.8-7.5-5.2-6.8-3.4.7 1.8 2.7 8.5 0 13.5s-1.5-3.5-2.6-6.6c-1.1-3.1-.3 6-1.7 9.8-1.4 3.8-2.8-9.3-3.4-11.1-.6-1.8-1.2 2.8-1 6.4.2 3.6-2 4.8-2.6 2.4-.6-2.4-.4-9.7-1.6-10.3-1.2-.6-.4 8.3-1.4 8.9-1 .6-2.8-6.3-2.4-9.5.4-3.2-4.4-21.4-4.4-21.4h13.4z" id="path86" fill="#0065a3" fill-rule="evenodd"/><path d="M280.9 351.2s-7.6.7-12 1.7c-4.5.9-11.6 5.7-11.6 5.7s-.5-1.5-1.4-4c-3.5-10.2-12.4-37-13.7-45.6-1.6-10.7 2.3-38.5 2.7-45.4.2-4.6 4.3-5.3 6.9-5.3 1.3 0 2.3.2 2.3.2 12.6 5.1 8.9 18.1 8 32.1-.9 13.9 2.8 24 5.4 30.5 2.5 6.3 13.4 30.1 13.4 30.1z" id="path88" fill="#fed58d" fill-rule="evenodd"/><path d="M266.1 349.1c-4.6.9-8.2 3.5-10.2 5.4-3.5-10.2-12.4-37-13.7-45.6-1.6-10.7 2.3-38.5 2.7-45.4.2-4.6 4.3-5.3 6.9-5.3-1.2 11-4.6 42.9-3 51.1 2 9.9 6.4 22.5 9.3 29.2 2.8 6.8 10.8 6.1 13.4 6.3 2.6.3 1.9 2.9-5.4 4.3z" id="path90" fill="#ffb884" fill-rule="evenodd" fill-opacity="1"/><path d="M289.7 255.4s4.2 25.6-3.3 37.8c-7.5 12.2-22.6 15.2-27.8 21.3l-8.9.6-.9-8.6s8.6-10.1 17.6-12.3c8.9-2.2 15.9-8.6 17.6-20.4 1.7-11.8 1-18.4 1-18.4z" id="path92" fill="#fff" fill-rule="evenodd"/><path d="M289.1 250s5.4 4.8.8 8.2c-4.6 3.4-11.1-6.7-7.8-7z" id="path94" fill="#dad9d6" fill-rule="evenodd"/><path d="M291 250.5c-2.1 1.3-4.5 2.1-6.9 2-2.3-.1-4.9.3-6.2 2.5-1.4 2.4-3.9 4.9-5.9 6.6-1.3 1.1-3.3.6-3.8-1.1-.9-2.9-2.5-6.9-4.7-9.3-3.8-4.1.5-14.1 7.3-15.1s17.5-2.9 23.7 3.5c6.2 6.4 6.9 9.6 9.7 11.7 2.8 2 2.1 4.1-3.3 2-4.3-1.7-6.8-4.7-9.9-2.8z" id="path96" fill="#fff" fill-rule="evenodd"/><path d="M297.9 233.9c-.5.2-.9.4-1.4.5-5.1 1.4-7.1 2.1-7 7.3 0 .6.1 1.3.1 2.1 0 0 2.4 5.9-4 6.2-3.6.1-7.6-.7-11-2.4-2.6-1.3-4.9-3.2-6.3-5.7-1.5-2.5-4.6-8.8-7.1-15.8-3.2-8.9-5.6-18.9-2.4-23.3 5.7-7.7 15.9-12.5 15.9-12.5 4-.8 12.2-1.1 18.3 4 .4.4.9.7 1.3 1.2 2.7 2.7 4.9 6.7 5.9 12.3 3.2 17.3 2.2 23.9-2.3 26.1z" id="path98" fill="#009eff" fill-rule="evenodd"/><path d="M297.9 233.9c-.4.2-.9.4-1.4.5-5.1 1.4-7.1 2.1-7 7.3-2.5-2.8-6.3-6.4-8.3-4.6-2.1 1.9-4.2 6.9-6.6 10.4-2.6-1.3-4.9-3.2-6.3-5.7-1.5-2.5-4.6-8.8-7.1-15.8l19.8-29.3 12.1-2.4 1.9-.4s-.2.7-.6 1.6c-.7 1.5-2.1 3.7-4.5 4.8-3.9 1.8-5.7 11.2-4.4 19.6 1.1 8.4 5.4 15.5 12.4 14z" id="path100" fill="#0086d8" fill-rule="evenodd"/><path d="M275 183.1c14.3-2.5 36.7 9.1 14.4 14.7-13 6.1-5.1 18.8-9.8 30.6-4.7 11.8-11.9 33.8-39.7 38.5-27.8 4.8-35.8-25.5-22-34.1 13.8-8.6 20.1-2.7 24.6-11.3 4.5-8.6 4.2-19.5 12-27.6 7.6-7.7 13.8-9.6 20.5-10.8z" id="path102" fill="#004772" fill-rule="evenodd"/><path d="M477.6 151.2l1.5 2.8c.1.2.3.4.5.5l2.8 1.5c.8.5.8 1.6 0 2.1l-2.8 1.5c-.2.1-.4.3-.5.5l-1.5 2.8c-.5.8-1.6.8-2.1 0l-1.5-2.8c-.1-.2-.3-.4-.5-.5l-2.8-1.5c-.8-.5-.8-1.6 0-2.1l2.8-1.5c.2-.1.4-.3.5-.5l1.5-2.8c.5-.8 1.7-.8 2.1 0z" id="path104" fill="#ff4fb5" fill-rule="evenodd" fill-opacity=".525"/><path d="M403.8 92.2l1.5 2.8c.1.2.3.4.5.5l2.8 1.5c.8.5.8 1.6 0 2.1l-2.8 1.5c-.2.1-.4.3-.5.5l-1.5 2.8c-.5.8-1.6.8-2.1 0l-1.5-2.8c-.1-.2-.3-.4-.5-.5l-2.8-1.5c-.8-.5-.8-1.6 0-2.1l2.8-1.5c.2-.1.4-.3.5-.5l1.5-2.8c.5-.8 1.7-.8 2.1 0z" id="path106" fill="#ffd2ec" fill-rule="evenodd" fill-opacity="1"/><path d="M165.2 131.3l1.5 2.8c.1.2.3.4.5.5l2.8 1.5c.8.5.8 1.6 0 2.1l-2.8 1.5c-.2.1-.4.3-.5.5l-1.5 2.8c-.5.8-1.6.8-2.1 0l-1.5-2.8c-.1-.2-.3-.4-.5-.5l-2.8-1.5c-.8-.5-.8-1.6 0-2.1l2.8-1.5c.2-.1.4-.3.5-.5l1.5-2.8c.5-.8 1.6-.8 2.1 0zm-38.9 159.3l1.5 2.8c.1.2.3.4.5.5l2.8 1.5c.8.5.8 1.6 0 2.1l-2.8 1.5c-.2.1-.4.3-.5.5l-1.5 2.8c-.5.8-1.6.8-2.1 0l-1.5-2.8c-.1-.2-.3-.4-.5-.5l-2.8-1.5c-.8-.5-.8-1.6 0-2.1l2.8-1.5c.2-.1.4-.3.5-.5l1.5-2.8c.5-.9 1.7-.9 2.1 0z" id="path108" fill="#ffd2ec" fill-rule="evenodd" fill-opacity="1"/><path d="M213.7 206.4l1.5 2.8c.1.2.3.4.5.5l2.8 1.5c.8.5.8 1.6 0 2.1l-2.8 1.5c-.2.1-.4.3-.5.5l-1.5 2.8c-.5.8-1.6.8-2.1 0l-1.5-2.8c-.1-.2-.3-.4-.5-.5l-2.8-1.5c-.8-.5-.8-1.6 0-2.1l2.8-1.5c.2-.1.4-.3.5-.5l1.5-2.8c.4-.8 1.6-.8 2.1 0z" id="path110" fill="#ffd2ec" fill-rule="evenodd" fill-opacity="1"/><path d="M519.2 375.2l1.5 2.8c.1.2.3.4.5.5l2.8 1.5c.8.5.8 1.6 0 2.1l-2.8 1.5c-.2.1-.4.3-.5.5l-1.5 2.8c-.5.8-1.6.8-2.1 0l-1.5-2.8c-.1-.2-.3-.4-.5-.5l-2.8-1.5c-.8-.5-.8-1.6 0-2.1l2.8-1.5c.2-.1.4-.3.5-.5l1.5-2.8c.4-.8 1.6-.8 2.1 0zm-229.1 99.3l1.5 2.8c.1.2.3.4.5.5l2.8 1.5c.8.5.8 1.6 0 2.1l-2.8 1.5c-.2.1-.4.3-.5.5l-1.5 2.8c-.5.8-1.6.8-2.1 0l-1.5-2.8c-.1-.2-.3-.4-.5-.5l-2.8-1.5c-.8-.5-.8-1.6 0-2.1l2.8-1.5c.2-.1.4-.3.5-.5l1.5-2.8c.5-.9 1.7-.9 2.1 0z" id="path112" fill="#ff4fb5" fill-rule="evenodd" fill-opacity=".525"/><path d="M462.2 100.2l1.5 2.8c.1.2.3.4.5.5l2.8 1.5c.8.5.8 1.6 0 2.1l-2.8 1.5c-.2.1-.4.3-.5.5l-1.5 2.8c-.5.8-1.6.8-2.1 0l-1.5-2.8c-.1-.2-.3-.4-.5-.5l-2.8-1.5c-.8-.5-.8-1.6 0-2.1l2.8-1.5c.2-.1.4-.3.5-.5l1.5-2.8c.4-.9 1.6-.9 2.1 0zM76.3 225.6l1.5 2.8c.1.2.3.4.5.5l2.8 1.5c.8.5.8 1.6 0 2.1l-2.8 1.5c-.2.1-.4.3-.5.5l-1.5 2.8c-.5.8-1.6.8-2.1 0l-1.5-2.8c-.1-.2-.3-.4-.5-.5l-2.8-1.5c-.8-.5-.8-1.6 0-2.1l2.8-1.5c.2-.1.4-.3.5-.5l1.5-2.8c.5-.9 1.7-.9 2.1 0zm440.3-62.3l1.5 2.8c.1.2.3.4.5.5l2.8 1.5c.8.5.8 1.6 0 2.1l-2.8 1.5c-.2.1-.4.3-.5.5l-1.5 2.8c-.5.8-1.6.8-2.1 0l-1.5-2.8c-.1-.2-.3-.4-.5-.5l-2.8-1.5c-.8-.5-.8-1.6 0-2.1l2.8-1.5c.2-.1.4-.3.5-.5l1.5-2.8c.5-.9 1.7-.9 2.1 0z" id="path114" fill="#ff4fb5" fill-rule="evenodd" fill-opacity="1"/><path d="M340 521.4l1.5 2.8c.1.2.3.4.5.5l2.8 1.5c.8.5.8 1.6 0 2.1l-2.8 1.5c-.2.1-.4.3-.5.5l-1.5 2.8c-.5.8-1.6.8-2.1 0l-1.5-2.8c-.1-.2-.3-.4-.5-.5l-2.8-1.5c-.8-.5-.8-1.6 0-2.1l2.8-1.5c.2-.1.4-.3.5-.5l1.5-2.8c.4-.9 1.6-.9 2.1 0z" id="path116" fill="#ff4fb5" fill-rule="evenodd" fill-opacity=".525"/></svg>