<svg
  version="1.1"
  id="Layer_1"
  xmlns="http://www.w3.org/2000/svg"
  xmlns:xlink="http://www.w3.org/1999/xlink"
  x="0px"
  y="0px"
  width="63"
	height="63"
  viewBox="0 0 2083 2083"
  enable-background="new 0 0 2083 2083"
  xml:space="preserve"
>
  <path
    fill="#893bc3"
    opacity="1.000000"
    stroke="none"
    d="
M1621.503296,1595.503296 
	C1590.602417,1626.404907 1559.721191,1656.345459 1529.956787,1687.358032 
	C1507.321167,1710.943237 1464.966431,1713.514160 1439.420776,1687.515015 
	C1415.829712,1663.504883 1391.865112,1639.861450 1368.050293,1616.071167 
	C1365.715454,1613.738770 1363.275513,1611.511353 1361.306885,1609.637573 
	C1334.678345,1622.349365 1309.109497,1635.849731 1282.517212,1646.883911 
	C1256.163208,1657.819336 1228.777710,1666.268677 1200.334106,1676.343384 
	C1200.334106,1678.487549 1200.333984,1682.069458 1200.333984,1685.651367 
	C1200.333618,1719.646484 1200.569824,1753.643921 1200.252319,1787.636108 
	C1200.030029,1811.442017 1189.443481,1829.720093 1168.927856,1842.015015 
	C1159.853271,1847.453247 1149.789673,1849.902588 1139.364136,1849.927490 
	C1076.373413,1850.077393 1013.381165,1850.222412 950.391785,1849.909302 
	C918.736084,1849.751953 892.007629,1824.702515 890.533752,1793.113770 
	C889.276917,1766.177856 889.853455,1739.155151 889.679321,1712.170410 
	C889.599854,1699.866577 889.665771,1687.561768 889.665771,1674.710938 
	C833.452576,1659.902100 780.589233,1637.883667 730.059875,1608.494019 
	C727.276733,1611.086548 724.590088,1613.443481 722.065918,1615.963257 
	C698.479187,1639.510010 674.421387,1662.611572 651.490234,1686.781494 
	C627.274658,1712.305298 584.140930,1712.163208 559.448730,1686.783936 
	C516.921082,1643.072998 473.475830,1600.250854 430.162811,1557.310791 
	C417.364502,1544.622437 410.815125,1529.208496 410.665833,1511.849976 
	C410.512360,1494.009888 417.449249,1478.287720 430.492035,1465.425903 
	C454.222198,1442.024658 477.676453,1418.343628 501.232147,1394.765625 
	C503.570709,1392.424805 505.814972,1389.990112 508.617920,1387.060913 
	C479.488495,1337.109985 457.519836,1284.225708 442.555176,1227.565186 
	C438.776184,1227.374023 435.236237,1227.043701 431.695862,1227.039551 
	C398.034058,1226.999878 364.355377,1226.350586 330.715027,1227.201050 
	C296.534271,1228.065186 266.928406,1199.530518 267.423218,1164.407715 
	C268.291748,1102.762085 268.129547,1041.090576 267.485596,979.439453 
	C267.120544,944.491638 296.216125,916.499329 330.107483,916.924927 
	C363.764038,917.347717 397.430023,917.017029 431.091888,917.016785 
	C434.687988,917.016785 438.284088,917.016785 442.422516,917.016785 
	C457.386139,860.299622 479.385925,807.394104 508.795868,757.054199 
	C506.053223,754.222412 503.569092,751.587341 501.010437,749.026672 
	C477.924194,725.921936 455.004913,702.646179 431.658691,679.806946 
	C418.615540,667.046997 410.981323,651.719482 410.710571,633.834229 
	C410.435303,615.654297 417.219238,599.601624 430.477753,586.440247 
	C466.194061,550.985657 501.694122,515.313171 537.279907,479.727020 
	C544.821228,472.185577 552.425781,464.706024 559.891174,457.090149 
	C584.335571,432.153168 625.756287,430.879547 651.215698,457.082947 
	C674.438293,480.984222 698.271362,504.292603 721.850647,527.847046 
	C724.411499,530.405212 727.072876,532.862793 730.045044,535.709290 
	C780.288757,506.390015 833.229004,484.437897 889.665771,469.500610 
	C889.665771,465.612091 889.665771,461.979095 889.665771,458.346069 
	C889.665833,426.683929 889.689514,395.021759 889.654663,363.359650 
	C889.640198,350.220123 891.223694,337.424805 897.915100,325.810120 
	C910.152405,304.569183 929.136597,294.275085 953.129822,294.129913 
	C1014.785400,293.756866 1076.447388,293.665680 1138.101685,294.135651 
	C1174.017456,294.409424 1200.142578,321.427734 1200.302002,357.227722 
	C1200.450317,390.555634 1200.333984,423.884705 1200.334106,457.213287 
	C1200.334106,460.868591 1200.334106,464.523895 1200.334106,469.340393 
	C1256.314087,484.143341 1309.403931,506.237152 1360.011353,535.552307 
	C1362.929199,532.794922 1365.596680,530.391724 1368.133911,527.858093 
	C1391.009888,505.014496 1413.879028,482.163879 1436.717041,459.282288 
	C1450.745605,445.227051 1467.182617,437.111969 1487.506470,437.970154 
	C1502.763428,438.614380 1516.364258,443.589661 1527.168579,454.316803 
	C1572.578247,499.402618 1617.929565,544.550964 1662.905640,590.068359 
	C1685.673340,613.110107 1685.054077,652.530151 1662.098267,675.826599 
	C1638.004395,700.277893 1613.586914,724.410156 1589.323364,748.694275 
	C1586.766602,751.253174 1584.293701,753.895752 1581.754272,756.528137 
	C1588.691895,769.706543 1595.535400,782.219543 1601.934937,794.955811 
	C1619.736694,830.385193 1634.155151,867.138733 1644.520630,905.444580 
	C1645.128784,907.691711 1645.821289,909.916260 1646.415405,912.166931 
	C1647.296875,915.506348 1649.292603,917.175964 1652.878540,917.018188 
	C1656.204468,916.872009 1659.542603,917.015259 1662.875366,917.015503 
	C1695.537354,917.018250 1728.199829,916.921814 1760.861328,917.047119 
	C1789.612183,917.157349 1813.078003,934.917847 1820.649170,962.406128 
	C1821.951172,967.133118 1822.257812,972.257019 1822.265869,977.198853 
	C1822.368896,1040.523071 1821.731079,1103.855713 1822.617188,1167.167725 
	C1822.996582,1194.265137 1798.971802,1226.905518 1762.759766,1226.995850 
	C1729.098022,1227.079956 1695.436157,1227.014893 1661.774292,1227.015869 
	C1659.441284,1227.015991 1657.091064,1227.202881 1654.778809,1226.985474 
	C1649.556885,1226.494629 1647.445435,1228.801147 1645.856934,1233.870605 
	C1638.915771,1256.023804 1631.935059,1278.196533 1623.890259,1299.963623 
	C1613.730469,1327.453613 1600.545044,1353.605225 1586.061279,1379.085571 
	C1584.592041,1381.670410 1583.318115,1384.366333 1581.756958,1387.391724 
	C1584.014160,1389.773926 1586.229492,1392.221436 1588.559814,1394.554443 
	C1612.348755,1418.370483 1636.027710,1442.298462 1659.998047,1465.930786 
	C1680.955078,1486.592407 1686.310913,1518.703369 1669.746704,1545.375732 
	C1667.664307,1548.729004 1665.048096,1551.838623 1662.268433,1554.655884 
	C1648.924072,1568.181396 1635.438599,1581.567627 1621.503296,1595.503296 
M570.573059,933.463257 
	C570.572327,1057.116699 570.445435,1180.770630 570.763489,1304.423218 
	C570.795715,1316.964600 572.102417,1329.860352 575.216675,1341.975098 
	C589.833801,1398.837646 640.544006,1437.933838 699.216370,1438.072388 
	C778.207703,1438.259033 857.200439,1438.266602 936.190735,1437.923828 
	C945.206665,1437.884644 950.362488,1440.363403 954.958008,1448.480347 
	C982.698792,1497.478394 1011.074585,1546.116943 1039.254517,1594.866089 
	C1040.972412,1597.837646 1042.833374,1600.726562 1045.219849,1604.619995 
	C1047.930786,1600.121460 1049.853394,1597.045044 1051.666626,1593.905396 
	C1079.826782,1545.145020 1108.097412,1496.447388 1135.979736,1447.528687 
	C1139.884644,1440.677979 1144.094482,1437.878662 1152.277832,1437.914185 
	C1231.934692,1438.260254 1311.594360,1438.313232 1391.251953,1438.061523 
	C1462.343384,1437.836792 1519.521851,1380.488525 1519.623535,1309.287842 
	C1519.803101,1183.634644 1519.692261,1057.980835 1519.650513,932.327209 
	C1519.645264,916.515808 1516.705444,901.191345 1511.021973,886.424255 
	C1491.859985,836.635620 1444.696655,803.929199 1391.000610,803.828369 
	C1292.344604,803.643188 1193.687866,803.772156 1095.031494,803.770203 
	C1091.125122,803.770142 1087.218872,803.770203 1082.772461,803.770203 
	C1082.772461,761.333557 1082.772461,720.134949 1082.762207,678.936340 
	C1130.377441,646.942200 1126.272583,592.352295 1099.537598,563.788879 
	C1070.425659,532.686157 1021.283630,532.370178 991.483765,563.023132 
	C964.775879,590.495544 958.913086,646.111023 1007.352051,678.885803 
	C1007.352051,720.183350 1007.352051,761.388550 1007.352051,803.770264 
	C1002.873352,803.770264 998.960205,803.770142 995.047119,803.770203 
	C897.057312,803.770996 799.067383,803.844299 701.077698,803.722961 
	C675.724182,803.691589 652.182312,809.842773 630.972229,823.666687 
	C592.076233,849.017639 572.450134,885.385559 570.573059,933.463257 
z"
  />
  <path
    fill="#FEFFFF"
    opacity="1.000000"
    stroke="none"
    d="
M570.576660,932.519287 
	C572.450134,885.385559 592.076233,849.017639 630.972229,823.666687 
	C652.182312,809.842773 675.724182,803.691589 701.077698,803.722961 
	C799.067383,803.844299 897.057312,803.770996 995.047119,803.770203 
	C998.960205,803.770142 1002.873352,803.770264 1007.352051,803.770264 
	C1007.352051,761.388550 1007.352051,720.183350 1007.352051,678.885803 
	C958.913086,646.111023 964.775879,590.495544 991.483765,563.023132 
	C1021.283630,532.370178 1070.425659,532.686157 1099.537598,563.788879 
	C1126.272583,592.352295 1130.377441,646.942200 1082.767334,678.936340 
	C1082.772461,720.134949 1082.772461,761.333557 1082.772461,803.770203 
	C1087.218872,803.770203 1091.125122,803.770142 1095.031494,803.770203 
	C1193.687866,803.772156 1292.344604,803.643188 1391.000610,803.828369 
	C1444.696655,803.929199 1491.859985,836.635620 1511.021973,886.424255 
	C1516.705444,901.191345 1519.645264,916.515808 1519.650513,932.327209 
	C1519.692261,1057.980835 1519.803101,1183.634644 1519.623535,1309.287842 
	C1519.521851,1380.488525 1462.343384,1437.836792 1391.251953,1438.061523 
	C1311.594360,1438.313232 1231.934692,1438.260254 1152.277832,1437.914185 
	C1144.094482,1437.878662 1139.884644,1440.677979 1135.979736,1447.528687 
	C1108.097412,1496.447388 1079.826782,1545.145020 1051.666626,1593.905396 
	C1049.853394,1597.045044 1047.930786,1600.121460 1045.219849,1604.619995 
	C1042.833374,1600.726562 1040.972412,1597.837646 1039.254517,1594.866089 
	C1011.074585,1546.116943 982.698792,1497.478394 954.958008,1448.480347 
	C950.362488,1440.363403 945.206665,1437.884644 936.190735,1437.923828 
	C857.200439,1438.266602 778.207703,1438.259033 699.216370,1438.072388 
	C640.544006,1437.933838 589.833801,1398.837646 575.216675,1341.975098 
	C572.102417,1329.860352 570.795715,1316.964600 570.763489,1304.423218 
	C570.445435,1180.770630 570.572327,1057.116699 570.576660,932.519287 
M1116.186035,1249.290283 
	C1157.712280,1222.018188 1188.060181,1166.434937 1178.780273,1134.704712 
	C1089.324585,1134.704712 999.881836,1134.704712 910.503784,1134.704712 
	C909.283813,1149.502441 912.472473,1167.129028 919.269104,1184.050903 
	C949.899902,1260.314087 1041.567261,1293.688354 1116.186035,1249.290283 
M1203.271606,1061.746460 
	C1205.303467,1063.464600 1207.266968,1065.271851 1209.377563,1066.887207 
	C1240.151367,1090.439697 1283.648193,1086.110596 1309.482544,1056.949585 
	C1334.574341,1028.626709 1333.824829,985.234924 1307.771362,957.881104 
	C1280.687500,929.445435 1237.526489,926.577087 1207.456543,951.206604 
	C1174.510132,978.192322 1170.007935,1028.286865 1203.271606,1061.746460 
M908.675781,994.817139 
	C901.243347,953.639099 860.668945,928.400574 822.693970,935.764709 
	C789.236023,942.252869 760.568115,972.242493 762.572144,1012.006653 
	C764.490234,1050.066284 795.129395,1080.137451 832.052429,1081.979736 
	C879.577393,1084.350586 916.531555,1042.560669 908.675781,994.817139 
z"
  />
  <path
    fill="#893bc3"
    opacity="1.000000"
    stroke="none"
    d="
M1115.559570,1249.661865 
	C1041.567261,1293.688354 949.899902,1260.314087 919.269104,1184.050903 
	C912.472473,1167.129028 909.283813,1149.502441 910.503784,1134.704712 
	C999.881836,1134.704712 1089.324585,1134.704712 1178.780273,1134.704712 
	C1188.060181,1166.434937 1157.712280,1222.018188 1115.559570,1249.661865 
z"
  />
  <path
    fill="#893bc3"
    opacity="1.000000"
    stroke="none"
    d="
M1202.761475,1061.253662 
	C1170.007935,1028.286865 1174.510132,978.192322 1207.456543,951.206604 
	C1237.526489,926.577087 1280.687500,929.445435 1307.771362,957.881104 
	C1333.824829,985.234924 1334.574341,1028.626709 1309.482544,1056.949585 
	C1283.648193,1086.110596 1240.151367,1090.439697 1209.377563,1066.887207 
	C1207.266968,1065.271851 1205.303467,1063.464600 1202.761475,1061.253662 
z"
  />
  <path
    fill="#893bc3"
    opacity="1.000000"
    stroke="none"
    d="
M908.874390,995.658813 
	C916.531555,1042.560669 879.577393,1084.350586 832.052429,1081.979736 
	C795.129395,1080.137451 764.490234,1050.066284 762.572144,1012.006653 
	C760.568115,972.242493 789.236023,942.252869 822.693970,935.764709 
	C860.668945,928.400574 901.243347,953.639099 908.874390,995.658813 
z"
  />
</svg>
